<?xml version="1.0" encoding="UTF-8"?><svg xmlns="http://www.w3.org/2000/svg" viewBox="0 0 238.63 100.75"><defs><style>.cls-1{fill:none;mix-blend-mode:screen;opacity:.08;stroke:#fff;stroke-miterlimit:10;stroke-width:.45px;}.cls-2{opacity:.5;}.cls-3{isolation:isolate;}.cls-4{fill:#fff;font-family:Arya-Double, Arya;}.cls-5{font-size:15.14px;}.cls-6{fill:#3e3a39;}.cls-7{font-size:79.52px;letter-spacing:-.2em;}</style></defs><g class="cls-3"><g id="_圖層_1"><circle class="cls-6" cx="116.82" cy="47.88" r="47.88"/><text class="cls-4" transform="translate(80.74 76.87)"><tspan class="cls-7" x="0" y="0">T</tspan><tspan class="cls-5" x="29.74" y="0">rend</tspan></text><g class="cls-2"><g><path class="cls-1" d="m.02,67.8c23.37,2.06,25.92,10.31,41.41,23.92,17.28,15.19,29.01,7.63,42.9-6.96"/><path class="cls-1" d="m.15,67.72c23.37,2.36,25.88,10.51,41.48,24.1,17.68,15.41,28.4,6.96,42.76-6.99"/><path class="cls-1" d="m.28,67.65c23.56,3.63,25.12,10.01,41.07,24.36,17.46,15.71,28.76,7.51,43.11-7.11"/><path class="cls-1" d="m.41,67.57c23.54,3.89,25.11,10.21,41.16,24.54,17.56,15.67,28.46,7.11,42.97-7.17"/><path class="cls-1" d="m.54,67.5c23.53,4.15,25.09,10.41,41.26,24.72,17.66,15.63,28.17,6.7,42.83-7.22"/><path class="cls-1" d="m.67,67.43c23.51,4.4,25.08,10.6,41.36,24.88,17.78,15.6,27.87,6.26,42.71-7.28"/><path class="cls-1" d="m.8,67.37c23.5,4.65,25.07,10.78,41.47,25.05,17.91,15.58,27.57,5.8,42.58-7.35"/><path class="cls-1" d="m.94,67.3c23.49,4.89,25.06,10.96,41.58,25.2,18.05,15.56,27.26,5.32,42.47-7.42"/><path class="cls-1" d="m1.07,67.24c23.49,5.12,25.05,11.14,41.7,25.36,18.21,15.55,26.95,4.82,42.36-7.49"/><path class="cls-1" d="m1.2,67.18c23.48,5.35,25.05,11.32,41.82,25.5,18.37,15.54,26.65,4.3,42.25-7.57"/><path class="cls-1" d="m1.34,67.12c23.48,5.57,25.04,11.49,41.94,25.65,18.55,15.53,26.34,3.76,42.15-7.65"/><path class="cls-1" d="m1.47,67.07c23.47,5.78,25.04,11.67,42.07,25.79,18.73,15.53,26.04,3.2,42.06-7.74"/><path class="cls-1" d="m1.61,67.01c23.47,5.99,25.04,11.84,42.2,25.92,18.93,15.53,25.74,2.62,41.97-7.83"/><path class="cls-1" d="m1.75,66.96c23.47,6.19,25.04,12.01,42.34,26.05,19.13,15.53,25.45,2.02,41.89-7.92"/><path class="cls-1" d="m1.89,66.91c23.47,6.39,25.05,12.18,42.48,26.17,19.34,15.53,25.17,1.4,41.82-8.02"/><path class="cls-1" d="m2.03,66.86c23.47,6.58,25.05,12.34,42.63,26.29,19.55,15.52,24.89.77,41.75-8.11"/><path class="cls-1" d="m2.17,66.81c23.46,6.76,25.06,12.51,42.77,26.41,19.77,15.51,24.63.12,41.69-8.22"/><path class="cls-1" d="m2.31,66.76c23.46,6.93,25.07,12.69,42.93,26.52,19.99,15.49,24.39-.55,41.63-8.32"/><path class="cls-1" d="m2.46,66.72c23.45,7.1,25.09,12.86,43.08,26.63,20.21,15.47,24.16-1.22,41.58-8.43"/><path class="cls-1" d="m2.6,66.68c23.44,7.27,25.11,13.03,43.24,26.73,20.42,15.44,23.96-1.91,41.53-8.54"/><path class="cls-1" d="m2.75,66.63c9.56,2.01,18.54,5.42,26.95,10.25,5.69,5.32,11.17,10.84,16.44,16.58,20.63,15.39,23.78-2.6,41.5-8.65"/><path class="cls-1" d="m2.9,66.59c9.48,2.13,18.44,5.54,26.88,10.22,5.79,5.34,11.34,10.91,16.67,16.71,20.83,15.33,23.62-3.29,41.46-8.76"/><path class="cls-1" d="m3.05,66.56c9.4,2.26,18.33,5.65,26.81,10.19,5.88,5.36,11.51,10.97,16.9,16.83,21.01,15.25,23.5-3.99,41.44-8.88"/><path class="cls-1" d="m3.21,66.52c9.32,2.38,18.23,5.77,26.75,10.15,5.98,5.38,11.69,11.03,17.14,16.96,21.19,15.16,23.41-4.68,41.42-8.99"/><path class="cls-1" d="m3.36,66.48c9.23,2.51,18.13,5.88,26.68,10.1,6.07,5.4,11.86,11.1,17.37,17.08,21.34,15.05,23.35-5.37,41.41-9.11"/><path class="cls-1" d="m3.52,66.45c9.15,2.63,18.02,5.99,26.61,10.05,6.17,5.43,12.04,11.17,17.61,17.21,21.48,14.92,23.32-6.04,41.4-9.23"/><path class="cls-1" d="m3.68,66.42c9.07,2.76,17.92,6.09,26.54,10,6.26,5.45,12.21,11.23,17.85,17.34,21.6,14.77,23.32-6.7,41.4-9.36"/><path class="cls-1" d="m3.84,66.39c8.99,2.89,17.81,6.2,26.48,9.94,6.36,5.48,12.38,11.3,18.09,17.47,21.7,14.61,23.36-7.35,41.41-9.48"/><path class="cls-1" d="m4.01,66.36c8.91,3.02,17.71,6.31,26.41,9.87,6.45,5.5,12.56,11.37,18.33,17.6,21.77,14.42,23.43-7.97,41.42-9.6"/><path class="cls-1" d="m4.17,66.33c8.82,3.15,17.6,6.41,26.34,9.8,6.55,5.53,12.74,11.44,18.57,17.73,21.83,14.22,23.53-8.57,41.44-9.72"/><path class="cls-1" d="m4.34,66.31c8.74,3.27,17.5,6.52,26.27,9.73,6.64,5.56,12.91,11.51,18.81,17.86,21.86,14,23.65-9.15,41.47-9.85"/><path class="cls-1" d="m4.51,66.28c8.67,3.4,17.4,6.62,26.21,9.65,6.73,5.58,13.08,11.58,19.05,17.98,21.87,13.77,23.8-9.7,41.5-9.97"/><path class="cls-1" d="m4.69,66.26c8.59,3.53,17.31,6.73,26.15,9.58,6.82,5.6,13.25,11.64,19.28,18.11,21.86,13.52,23.97-10.22,41.54-10.09"/><path class="cls-1" d="m4.86,66.24c8.52,3.66,17.22,6.83,26.09,9.5,6.91,5.63,13.42,11.7,19.52,18.22,21.83,13.26,24.16-10.71,41.59-10.22"/><path class="cls-1" d="m5.04,66.22c8.45,3.79,17.13,6.93,26.04,9.42,7,5.65,13.58,11.76,19.74,18.33,21.79,12.99,24.36-11.17,41.65-10.34"/><path class="cls-1" d="m5.22,66.21c8.39,3.92,17.05,7.03,25.98,9.34,7.09,5.67,13.75,11.82,19.97,18.44,21.74,12.72,24.57-11.61,41.71-10.46"/><path class="cls-1" d="m5.4,66.19c8.33,4.05,16.97,7.14,25.94,9.26,7.17,5.69,13.9,11.87,20.19,18.55,21.67,12.45,24.78-12.01,41.78-10.58"/><path class="cls-1" d="m5.59,66.18c8.27,4.17,16.9,7.24,25.89,9.18,7.26,5.71,14.06,11.92,20.41,18.65,21.6,12.17,25-12.39,41.86-10.7"/><path class="cls-1" d="m5.78,66.17c8.21,4.3,16.83,7.33,25.85,9.1,7.34,5.73,14.21,11.97,20.62,18.74,21.52,11.89,25.22-12.75,41.94-10.81"/><path class="cls-1" d="m5.97,66.17c8.16,4.42,16.77,7.43,25.81,9.02,7.42,5.74,14.36,12.02,20.84,18.83,21.44,11.61,25.43-13.07,42.03-10.93"/><path class="cls-1" d="m6.17,66.16c8.12,4.54,16.71,7.52,25.77,8.94,7.49,5.76,14.51,12.06,21.04,18.91,21.35,11.34,25.65-13.38,42.13-11.04"/><path class="cls-1" d="m6.36,66.16c8.07,4.66,16.65,7.61,25.74,8.86,7.57,5.77,14.65,12.11,21.25,18.99,21.26,11.07,25.86-13.66,42.24-11.15"/><path class="cls-1" d="m6.56,66.16c8.04,4.77,16.6,7.7,25.7,8.78,7.65,5.79,14.8,12.15,21.45,19.07,21.16,10.79,26.06-13.92,42.35-11.27"/><path class="cls-1" d="m6.77,66.16c8,4.88,16.56,7.78,25.68,8.7,7.72,5.8,14.94,12.19,21.65,19.15,21.07,10.52,26.25-14.17,42.47-11.38"/><path class="cls-1" d="m6.97,66.17c7.97,4.99,16.52,7.86,25.65,8.61,7.79,5.82,15.07,12.23,21.85,19.22,20.97,10.25,26.44-14.4,42.59-11.5"/><path class="cls-1" d="m7.18,66.18c7.94,5.09,16.48,7.93,25.63,8.53,7.86,5.83,15.21,12.26,22.04,19.3,20.87,9.99,26.62-14.62,42.71-11.61"/><path class="cls-1" d="m7.39,66.19c7.92,5.19,16.45,8,25.61,8.45,7.93,5.85,15.35,12.3,22.23,19.37,20.78,9.72,26.79-14.82,42.85-11.73"/><path class="cls-1" d="m7.61,66.2c7.9,5.28,16.42,8.06,25.59,8.36,8,5.86,15.48,12.34,22.42,19.43,20.68,9.46,26.96-15.01,42.98-11.85"/><path class="cls-1" d="m7.82,66.22c7.88,5.36,16.4,8.12,25.57,8.28,8.07,5.87,15.61,12.37,22.61,19.5,20.58,9.21,27.11-15.18,43.12-11.97"/><path class="cls-1" d="m8.04,66.24c7.86,5.44,16.38,8.17,25.56,8.2,8.14,5.89,15.74,12.41,22.8,19.56,20.49,8.95,27.26-15.35,43.27-12.09"/><path class="cls-1" d="m8.27,66.26c8.87,3.74,19.7,5.94,28.07,10.34,7.89,4.15,12.3,12.67,20.49,16.47,20.18,9.38,26.8-14.22,43.39-11.27"/><path class="cls-1" d="m8.49,66.29c9.07,3.83,19.64,5.88,28.09,10.27,7.97,4.14,12.37,12.74,20.65,16.52,20.08,9.19,26.91-14.4,43.52-11.36"/><path class="cls-1" d="m8.72,66.32c9.27,3.92,19.57,5.81,28.12,10.19,8.05,4.13,12.44,12.81,20.8,16.57,19.97,9,27.02-14.57,43.67-11.44"/><path class="cls-1" d="m8.96,66.36c9.47,4,19.51,5.74,28.14,10.11,8.12,4.12,12.52,12.88,20.96,16.62,19.87,8.82,27.13-14.73,43.81-11.52"/><path class="cls-1" d="m9.19,66.4c9.67,4.08,19.45,5.66,28.17,10.03,8.2,4.11,12.59,12.94,21.11,16.67,19.77,8.64,27.23-14.88,43.96-11.6"/><path class="cls-1" d="m9.43,66.44c9.87,4.16,19.39,5.58,28.2,9.95,8.27,4.1,12.66,13.01,21.27,16.71,19.67,8.47,27.34-15.02,44.11-11.67"/><path class="cls-1" d="m9.67,66.49c10.06,4.23,19.33,5.5,28.23,9.87,8.35,4.09,12.72,13.07,21.42,16.76,19.57,8.3,27.44-15.15,44.27-11.74"/><path class="cls-1" d="m9.92,66.54c10.25,4.3,19.28,5.42,28.27,9.78,8.42,4.09,12.79,13.14,21.57,16.8,19.48,8.13,27.55-15.27,44.43-11.81"/><path class="cls-1" d="m10.16,66.59c10.43,4.36,19.23,5.33,28.3,9.69,8.49,4.08,12.86,13.2,21.72,16.84,19.38,7.96,27.65-15.39,44.6-11.86"/><path class="cls-1" d="m10.41,66.65c10.59,4.41,19.19,5.25,28.34,9.61,8.56,4.08,12.92,13.26,21.87,16.88,19.29,7.8,27.75-15.49,44.77-11.92"/><path class="cls-1" d="m10.67,66.72c10.75,4.45,19.16,5.16,28.38,9.52,8.63,4.08,12.99,13.32,22.01,16.92,19.2,7.64,27.86-15.58,44.95-11.96"/><path class="cls-1" d="m10.92,66.79c10.89,4.49,19.13,5.07,28.42,9.43,8.7,4.08,13.05,13.38,22.16,16.95,19.11,7.49,27.96-15.66,45.12-12"/><path class="cls-1" d="m11.18,66.86c11.02,4.51,19.11,4.98,28.46,9.34,8.77,4.09,13.11,13.44,22.3,16.98,18.95,7.31,28.52-16.7,45.31-12.04"/><path class="cls-1" d="m11.45,66.95c11.13,4.52,19.09,4.88,28.5,9.24,8.84,4.1,13.17,13.49,22.45,17.01,18.89,7.17,28.58-16.71,45.49-12.07"/><path class="cls-1" d="m11.71,67.03c11.23,4.53,19.09,4.79,28.54,9.15,8.9,4.1,13.23,13.54,22.59,17.04,18.83,7.04,28.64-16.71,45.68-12.09"/><path class="cls-1" d="m11.98,67.12c11.31,4.52,19.09,4.69,28.59,9.05,8.97,4.12,13.29,13.59,22.73,17.07,18.77,6.9,28.7-16.7,45.88-12.1"/><path class="cls-1" d="m12.25,67.22c11.37,4.5,19.1,4.6,28.64,8.96,9.03,4.13,13.34,13.64,22.87,17.09,18.72,6.77,28.78-16.68,46.08-12.1"/><path class="cls-1" d="m12.53,67.33c11.42,4.47,19.12,4.5,28.68,8.86,9.09,4.14,13.4,13.69,23,17.11,18.66,6.64,28.85-16.65,46.28-12.1"/><path class="cls-1" d="m12.8,67.44c11.46,4.43,19.14,4.4,28.73,8.76,9.15,4.16,13.46,13.73,23.14,17.12,18.6,6.52,28.94-16.61,46.49-12.09"/><path class="cls-1" d="m13.08,67.55c11.49,4.38,19.18,4.3,28.78,8.66,9.21,4.18,13.51,13.77,23.27,17.14,18.54,6.39,29.03-16.56,46.7-12.07"/><path class="cls-1" d="m13.37,67.68c10.84,4.24,21.01,4.11,30.66,9.47,7.3,4.05,13.2,14.9,21.29,17.4,18.53,5.74,29.83-17.51,47.21-13.21"/><path class="cls-1" d="m13.65,67.81c11,4.24,21.01,3.95,30.75,9.39,7.27,4.06,13.22,14.95,21.34,17.4,18.49,5.59,29.99-17.48,47.47-13.19"/><path class="cls-1" d="m13.94,67.95c11.16,4.24,21,3.78,30.85,9.31,7.25,4.07,13.23,15,21.38,17.4,18.46,5.44,30.15-17.44,47.73-13.16"/><path class="cls-1" d="m14.23,68.09c11.32,4.22,20.99,3.6,30.95,9.23,7.23,4.09,13.24,15.04,21.43,17.39,18.42,5.29,30.31-17.39,47.99-13.12"/><path class="cls-1" d="m14.53,68.24c11.49,4.2,20.98,3.42,31.04,9.14,7.21,4.1,13.25,15.09,21.48,17.39,18.39,5.16,30.47-17.35,48.26-13.08"/><path class="cls-1" d="m14.81,68.39c11.66,4.19,20.97,3.24,31.16,9.07,7.2,4.12,13.26,15.13,21.52,17.39,18.35,5.03,30.64-17.3,48.53-13.02"/><path class="cls-1" d="m15.09,68.52c11.84,4.17,20.97,3.07,31.28,9.01,7.19,4.14,13.26,15.16,21.57,17.39,18.33,4.9,30.8-17.25,48.8-12.96"/><path class="cls-1" d="m15.36,68.66c12.01,4.16,20.96,2.9,31.41,8.95,7.18,4.16,13.26,15.2,21.62,17.38,18.3,4.79,30.97-17.2,49.08-12.89"/><path class="cls-1" d="m15.64,68.79c12.19,4.14,20.96,2.74,31.53,8.9,7.18,4.18,13.25,15.23,21.67,17.38,18.28,4.67,31.13-17.15,49.35-12.81"/><path class="cls-1" d="m15.92,68.93c12.37,4.12,20.95,2.57,31.66,8.85,7.17,4.21,13.24,15.26,21.71,17.38,18.27,4.57,31.3-17.1,49.63-12.73"/><path class="cls-1" d="m16.21,69.07c11,3.59,22.41,2.38,31.79,8.81,6.66,4.56,13.53,15.36,21.76,17.38,18.26,4.46,31.46-17.04,49.91-12.63"/><path class="cls-1" d="m16.49,69.21c11.2,3.58,22.4,2.21,31.92,8.77,6.66,4.59,13.51,15.39,21.81,17.38,18.26,4.37,31.62-16.99,50.19-12.53"/><path class="cls-1" d="m16.78,69.35c11.39,3.57,22.38,2.04,32.05,8.74,6.68,4.62,13.49,15.42,21.86,17.38,18.27,4.27,31.78-16.94,50.48-12.42"/><path class="cls-1" d="m17.06,69.5c11.58,3.55,22.37,1.88,32.18,8.71,6.69,4.66,13.46,15.44,21.91,17.37,18.29,4.18,31.93-16.88,50.76-12.29"/><path class="cls-1" d="m17.35,69.64c11.77,3.53,22.36,1.72,32.32,8.69,6.71,4.7,13.44,15.47,21.96,17.37,18.32,4.1,32.08-16.83,51.05-12.16"/><path class="cls-1" d="m17.64,69.78c11.95,3.5,22.35,1.57,32.45,8.67,6.73,4.74,13.41,15.49,22.02,17.37,18.36,4.01,32.22-16.78,51.34-12.02"/><path class="cls-1" d="m17.93,69.93c12.13,3.47,22.35,1.42,32.59,8.66,6.76,4.78,13.38,15.51,22.07,17.37,18.41,3.93,32.36-16.73,51.63-11.87"/><path class="cls-1" d="m18.2,70.07c12.29,3.43,22.31,1.26,32.68,8.63,6.78,4.82,13.34,15.53,22.12,17.37,18.47,3.86,32.49-16.67,51.94-11.7"/><path class="cls-1" d="m18.48,70.2c12.44,3.39,22.28,1.11,32.77,8.6,6.81,4.86,13.29,15.54,22.15,17.35,18.54,3.78,32.57-16.65,52.16-11.56"/><path class="cls-1" d="m18.76,70.33c12.58,3.34,22.25.96,32.87,8.57,6.83,4.9,13.23,15.55,22.18,17.33,9.56,1.9,21.62-7.27,30.62-9.71,8.29-2.24,12.98-2.9,21.76-1.72"/><path class="cls-1" d="m19.03,70.46c12.71,3.27,22.23.81,32.96,8.54,6.86,4.94,13.18,15.56,22.21,17.3,8.57,1.66,22.26-6.91,30.63-9.72,8.28-2.78,13.26-2.79,21.98-1.57"/><path class="cls-1" d="m19.31,70.59c12.84,3.2,22.21.67,33.05,8.51,6.89,4.98,13.13,15.56,22.24,17.27,8.44,1.59,22.28-6.98,30.63-9.73,8.36-2.75,13.42-2.69,22.19-1.43"/><path class="cls-1" d="m19.59,70.72c12.96,3.12,22.2.53,33.15,8.47,6.92,5.02,13.07,15.56,22.28,17.24,8.32,1.52,22.29-7.05,30.63-9.74,8.44-2.72,13.59-2.6,22.41-1.28"/><path class="cls-1" d="m19.87,70.84c13.07,3.03,22.2.4,33.24,8.44,6.95,5.07,13.02,15.56,22.31,17.2,8.19,1.45,22.31-7.12,30.63-9.75,8.53-2.69,13.75-2.51,22.63-1.14"/><path class="cls-1" d="m20.15,70.96c13.18,2.94,22.2.27,33.33,8.41,6.99,5.11,12.96,15.56,22.35,17.16,8.07,1.38,22.31-7.18,30.63-9.76,8.62-2.67,13.92-2.42,22.86-1"/><path class="cls-1" d="m20.43,71.08c11.63,2.71,20.25-.09,30.21,6.35,10.14,6.55,14.71,15.68,26.4,17.9,17.97,3.41,33.04-13.18,52.92-9.39"/><path class="cls-1" d="m20.71,71.2c11.7,2.63,20.28-.23,30.29,6.3,10.27,6.68,14.63,15.7,26.48,17.85,18.26,3.3,32.99-13.2,53.12-9.24"/><path class="cls-1" d="m21,71.31c11.77,2.54,20.31-.36,30.38,6.24,10.4,6.82,14.53,15.73,26.55,17.79,18.58,3.18,32.94-13.23,53.32-9.08"/><path class="cls-1" d="m21.28,71.42c11.84,2.44,20.34-.49,30.47,6.19,10.56,6.97,14.42,15.74,26.62,17.71,18.91,3.06,32.89-13.25,53.53-8.92"/><path class="cls-1" d="m21.56,71.53c11.9,2.34,20.38-.62,30.56,6.14,10.72,7.12,14.29,15.75,26.68,17.64,19.26,2.93,32.83-13.28,53.74-8.76"/><path class="cls-1" d="m21.84,71.63c11.95,2.23,20.42-.74,30.65,6.09,10.89,7.28,14.17,15.76,26.75,17.56,19.61,2.79,32.77-13.32,53.95-8.6"/><path class="cls-1" d="m22.13,71.73c12.01,2.11,20.47-.86,30.74,6.04,11.08,7.44,14.03,15.77,26.82,17.47,19.96,2.64,32.71-13.36,54.16-8.44"/><path class="cls-1" d="m22.41,71.83c12.05,2,20.52-.97,30.83,5.99,11.27,7.62,13.89,15.79,26.89,17.38,20.32,2.49,32.66-13.41,54.37-8.27"/><path class="cls-1" d="m22.7,71.93c12.1,1.87,20.58-1.09,30.92,5.94,11.48,7.79,13.75,15.8,26.96,17.28,20.67,2.31,32.61-13.46,54.58-8.1"/><path class="cls-1" d="m22.98,72.02c12.14,1.74,20.64-1.19,31.01,5.89,11.69,7.97,13.6,15.81,27.04,17.17,21.02,2.13,32.56-13.51,54.79-7.94"/><path class="cls-1" d="m23.27,72.1c12.18,1.61,20.7-1.29,31.11,5.84,11.92,8.16,13.44,15.82,27.11,17.06,21.35,1.94,32.53-13.56,54.99-7.77"/><path class="cls-1" d="m23.55,72.19c12.21,1.47,20.77-1.39,31.2,5.79,12.15,8.35,13.28,15.83,27.19,16.95,21.67,1.73,32.52-13.62,55.2-7.59"/><path class="cls-1" d="m23.84,72.27c12.24,1.33,20.84-1.48,31.3,5.74,12.39,8.55,13.12,15.85,27.27,16.82,21.92,1.51,32.54-13.65,55.37-7.45"/><path class="cls-1" d="m24.12,72.35c12.26,1.19,20.91-1.56,31.4,5.7,12.64,8.75,12.96,15.86,27.36,16.69,22.1,1.28,32.59-13.66,55.5-7.35"/><path class="cls-1" d="m24.41,72.42c12.29,1.04,20.99-1.64,31.49,5.65,12.88,8.95,12.8,15.87,27.44,16.56,22.26,1.05,32.65-13.68,55.64-7.24"/><path class="cls-1" d="m24.69,72.49c12.3.88,21.08-1.71,31.59,5.61,13.13,9.15,12.64,15.88,27.53,16.43,22.4.82,32.73-13.7,55.77-7.14"/><path class="cls-1" d="m24.98,72.56c12.32.72,21.17-1.78,31.69,5.57,13.38,9.34,12.48,15.9,27.61,16.29,22.51.59,32.83-13.72,55.9-7.04"/><path class="cls-1" d="m25.26,72.62c12.33.56,21.26-1.84,31.79,5.53,13.62,9.53,12.33,15.91,27.7,16.16,22.61.36,32.95-13.74,56.04-6.95"/><path class="cls-1" d="m25.55,72.68c12.33.4,21.35-1.89,31.89,5.49,13.86,9.71,12.18,15.92,27.78,16.02,22.69.14,33.08-13.77,56.17-6.87"/><path class="cls-1" d="m25.83,72.74c12.33.23,21.45-1.94,31.99,5.46,14.09,9.89,12.03,15.93,27.87,15.88,22.75-.08,33.22-13.8,56.3-6.78"/><path class="cls-1" d="m26.12,72.79c12.34.06,21.55-1.99,32.09,5.42,14.31,10.06,11.9,15.94,27.95,15.73,22.79-.29,33.38-13.84,56.43-6.71"/><path class="cls-1" d="m26.41,72.84c12.34-.11,21.64-2.04,32.19,5.39,14.53,10.22,11.77,15.94,28.04,15.59,22.82-.5,33.55-13.88,56.55-6.64"/><path class="cls-1" d="m26.69,72.88c12.44-.07,21.63-2.16,32.29,5.36,14.73,10.38,11.65,15.94,28.13,15.44,22.84-.7,33.73-13.92,56.68-6.57"/><path class="cls-1" d="m26.98,72.92c12.37-.44,21.82-2.14,32.4,5.33,14.92,10.54,11.54,15.94,28.22,15.29,22.85-.9,33.92-13.97,56.8-6.5"/><path class="cls-1" d="m27.26,72.96c12.3-.8,22.01-2.12,32.5,5.31,15.1,10.68,11.44,15.93,28.31,15.14,22.85-1.08,34.11-14.03,56.93-6.44"/><path class="cls-1" d="m27.54,72.99c12.23-1.15,22.19-2.09,32.6,5.28,15.27,10.82,11.35,15.92,28.4,14.98,22.84-1.26,34.32-14.09,57.05-6.39"/><path class="cls-1" d="m27.83,73.02c12.16-1.5,22.37-2.07,32.71,5.26,15.42,10.95,11.27,15.91,28.49,14.82,22.82-1.43,34.53-14.15,57.17-6.33"/><path class="cls-1" d="m28.11,73.04c12.09-1.85,22.55-2.05,32.81,5.25,15.55,11.07,11.21,15.88,28.58,14.67,22.8-1.6,34.75-14.23,57.29-6.29"/><path class="cls-1" d="m28.4,73.06c12.02-2.19,22.73-2.03,32.92,5.23,15.67,11.18,11.16,15.85,28.67,14.5,8.91-.69,17.55-5.16,26.09-7.28,13.48-3.36,17.14-4.05,31.31,1.04"/><path class="cls-1" d="m28.68,73.08c11.95-2.53,22.9-2.01,33.02,5.22,15.78,11.28,11.12,15.81,28.77,14.34,8.85-.74,17.5-5.12,26.01-7.24,13.66-3.4,17.13-4.24,31.51,1.04"/><path class="cls-1" d="m28.96,73.09c11.88-2.85,23.07-1.99,33.13,5.22,15.87,11.37,11.09,15.77,28.86,14.17,8.8-.79,17.44-5.09,25.93-7.19,13.81-3.42,17.14-4.37,31.71,1.02"/><path class="cls-1" d="m29.24,73.1c11.81-3.18,23.23-1.97,33.23,5.21,15.94,11.45,11.09,15.72,28.96,14,8.74-.84,17.39-5.06,25.85-7.14,13.96-3.43,17.16-4.49,31.9,1.01"/><path class="cls-1" d="m29.52,73.1c11.75-3.5,23.38-1.95,33.34,5.21,15.99,11.52,11.09,15.65,29.05,13.83,8.68-.88,17.33-5.02,25.77-7.08,14.1-3.45,17.18-4.61,32.1.99"/><path class="cls-1" d="m29.81,73.1c11.69-3.81,23.54-1.94,33.44,5.21,16.03,11.57,11.11,15.58,29.15,13.65,8.63-.92,17.28-4.99,25.69-7.03,14.25-3.46,17.19-4.73,32.29.97"/><path class="cls-1" d="m30.09,73.1c11.63-4.12,23.68-1.92,33.55,5.22,16.05,11.62,11.15,15.5,29.25,13.47,8.58-.96,17.22-4.95,25.6-6.98,14.4-3.48,17.19-4.86,32.48.94"/><path class="cls-1" d="m30.36,73.09c11.57-4.43,23.83-1.9,33.65,5.23,16.06,11.66,11.19,15.41,29.35,13.29,8.53-.99,17.16-4.92,25.52-6.93,14.55-3.5,17.2-5,32.67.91"/><path class="cls-1" d="m30.64,73.07c11.52-4.73,23.96-1.88,33.76,5.25,16.07,11.7,11.25,15.32,29.46,13.11,8.48-1.03,17.1-4.88,25.44-6.87,14.7-3.51,17.2-5.13,32.86.88"/><path class="cls-1" d="m30.92,73.06c11.48-5.03,24.1-1.87,33.86,5.27,16.07,11.74,11.31,15.22,29.56,12.92,8.43-1.06,17.04-4.84,25.35-6.82,14.86-3.53,17.2-5.27,33.05.84"/><path class="cls-1" d="m31.2,73.03c11.43-5.33,24.22-1.85,33.97,5.29,16.06,11.77,11.38,15.12,29.67,12.73,8.38-1.1,16.97-4.8,25.27-6.76,15.01-3.55,17.19-5.41,33.24.81"/><path class="cls-1" d="m31.47,73.01c11.39-5.62,24.35-1.83,34.08,5.32,16.05,11.8,11.47,15.01,29.77,12.53,8.34-1.13,16.91-4.76,25.19-6.7,15.17-3.57,17.19-5.56,33.43.76"/><path class="cls-1" d="m31.75,72.98c11.36-5.91,24.47-1.82,34.18,5.35,16.02,11.82,11.56,14.89,29.88,12.33,8.29-1.16,16.85-4.72,25.1-6.65,15.33-3.59,17.18-5.71,33.61.72"/><path class="cls-1" d="m32.02,72.94c11.33-6.19,24.58-1.8,34.29,5.38,15.99,11.84,11.66,14.77,29.99,12.13,8.25-1.19,16.78-4.67,25.02-6.59,15.49-3.6,17.17-5.86,33.79.67"/><path class="cls-1" d="m32.3,72.91c11.3-6.48,24.69-1.78,34.39,5.42,15.96,11.85,11.78,14.64,30.11,11.92,8.21-1.22,16.72-4.63,24.93-6.53,15.65-3.62,17.15-6.01,33.97.62"/><path class="cls-1" d="m32.57,72.86c11.3-6.77,24.82-1.74,34.53,5.5,15.87,11.85,11.91,14.47,30.19,11.68,8.17-1.25,16.65-4.58,24.85-6.47,15.81-3.64,17.14-6.16,34.15.57"/><path class="cls-1" d="m32.84,72.82c11.32-7.07,24.97-1.69,34.69,5.61,15.74,11.83,12.05,14.26,30.25,11.4,8.13-1.28,16.59-4.53,24.76-6.4,15.97-3.66,17.12-6.32,34.33.51"/><path class="cls-1" d="m33.11,72.77c11.34-7.37,25.12-1.64,34.85,5.72,15.61,11.8,12.2,14.04,30.31,11.12,8.1-1.31,16.52-4.48,24.68-6.34,16.14-3.68,17.1-6.47,34.51.46"/><path class="cls-1" d="m33.38,72.71c11.36-7.66,25.26-1.58,35.02,5.84,15.47,11.77,12.36,13.82,30.37,10.84,8.06-1.33,16.46-4.43,24.59-6.27,16.3-3.7,17.09-6.63,34.68.4"/><path class="cls-1" d="m33.65,72.65c11.4-7.96,25.41-1.52,35.18,5.97,15.32,11.73,12.53,13.59,30.43,10.55,8.03-1.36,16.39-4.37,24.51-6.21,16.46-3.72,17.07-6.79,34.86.34"/><path class="cls-1" d="m33.92,72.59c9.81-6.65,23.23-2.96,32.33,3.34,16.49,11.41,13.82,17.42,33.97,12.62,8.69-2.07,17.49-3.76,26.09-5.79,16.17-3.81,15.36-7.14,32.9.32"/><path class="cls-1" d="m34.18,72.52c9.76-6.89,23.36-2.94,32.45,3.37,16.73,11.63,13.8,17.19,34.16,12.31,8.64-2.07,17.41-3.59,25.94-5.6,16.31-3.85,15.35-7.29,33.06.25"/><path class="cls-1" d="m34.45,72.45c9.72-7.12,23.48-2.93,32.57,3.42,16.96,11.83,13.79,16.95,34.34,12,8.59-2.07,17.33-3.42,25.8-5.42,16.44-3.89,15.35-7.43,33.21.18"/><path class="cls-1" d="m34.71,72.38c9.68-7.34,23.6-2.91,32.7,3.46,17.17,12.03,13.81,16.7,34.52,11.69,8.53-2.06,17.26-3.26,25.66-5.25,16.58-3.93,15.35-7.58,33.36.11"/><path class="cls-1" d="m34.97,72.3c9.65-7.57,23.72-2.9,32.82,3.51,17.36,12.22,13.84,16.43,34.7,11.38,8.47-2.05,17.19-3.09,25.52-5.08,16.71-3.98,15.35-7.72,33.52.04"/><path class="cls-1" d="m35.23,72.22c9.63-7.79,23.83-2.88,32.94,3.56,17.53,12.39,13.89,16.16,34.88,11.08,8.4-2.03,17.13-2.94,25.38-4.91,16.84-4.02,15.35-7.86,33.67-.03"/><path class="cls-1" d="m35.49,72.13c9.61-8,23.94-2.86,33.07,3.62,17.68,12.56,13.97,15.87,35.06,10.77,8.33-2.01,17.07-2.79,25.24-4.74,16.97-4.06,15.35-8,33.82-.11"/><path class="cls-1" d="m35.75,72.04c9.61-8.22,24.04-2.84,33.19,3.69,17.82,12.72,14.06,15.57,35.23,10.46,8.25-1.99,17.01-2.64,25.11-4.59,17.1-4.11,15.35-8.14,33.96-.18"/><path class="cls-1" d="m36,71.95c9.6-8.43,24.14-2.82,33.31,3.76,17.95,12.87,14.16,15.26,35.41,10.16,8.17-1.96,16.96-2.5,24.98-4.43,17.22-4.16,15.35-8.28,34.11-.26"/><path class="cls-1" d="m36.25,71.85c9.61-8.64,24.24-2.8,33.44,3.83,18.07,13.02,14.27,14.95,35.59,9.85,8.09-1.93,16.91-2.36,24.85-4.28,17.35-4.2,15.35-8.42,34.25-.33"/><path class="cls-1" d="m36.51,71.75c9.63-8.85,24.34-2.77,33.56,3.91,18.17,13.17,14.41,14.62,35.76,9.55,8.01-1.9,16.86-2.22,24.72-4.13,17.47-4.25,15.35-8.56,34.39-.4"/><path class="cls-1" d="m36.76,71.64c9.67-9.07,24.47-2.72,33.73,4.04,18.2,13.3,14.57,14.23,35.89,9.2,7.93-1.87,16.82-2.09,24.59-3.99,17.59-4.3,15.35-8.7,34.53-.48"/><path class="cls-1" d="m37.01,71.53c9.73-9.29,24.62-2.66,33.92,4.2,18.19,13.41,14.75,13.81,36.01,8.83,7.85-1.84,16.78-1.97,24.47-3.85,17.71-4.34,15.35-8.84,34.67-.55"/><path class="cls-1" d="m37.25,71.42c9.8-9.51,24.77-2.59,34.11,4.36,4.59,7.55,11.09,12.27,19.49,14.15,5.54-1.9,11.08-3.79,16.62-5.69,7.77-1.8,16.74-1.84,24.35-3.72,17.82-4.39,15.34-8.97,34.8-.63"/><path class="cls-1" d="m37.5,71.31c9.87-9.72,24.92-2.52,34.3,4.52,4.57,7.55,11.07,12.18,19.5,13.92,5.57-1.94,11.15-3.88,16.72-5.82,7.69-1.77,16.7-1.73,24.24-3.59,17.94-4.44,15.34-9.11,34.94-.7"/><path class="cls-1" d="m37.74,71.19c9.96-9.92,25.08-2.44,34.5,4.7,4.56,7.54,11.06,12.1,19.51,13.67,5.6-1.98,11.21-3.97,16.81-5.95,7.61-1.73,16.66-1.61,24.12-3.47,18.05-4.49,15.33-9.24,35.07-.77"/><path class="cls-1" d="m37.98,71.07c10.06-10.11,25.23-2.36,34.7,4.88,17.67,13.51,15.84,12.59,36.42,7.35,7.73-1.97,16.44-1.46,24.01-3.35,18.16-4.54,15.32-9.37,35.2-.85"/><path class="cls-1" d="m38.22,70.94c10.17-10.3,25.38-2.28,34.9,5.06,17.59,13.56,16.09,12.16,36.52,6.98,7.65-1.94,16.4-1.35,23.9-3.24,18.27-4.59,15.31-9.51,35.33-.92"/><path class="cls-1" d="m38.46,70.81c10.28-10.48,25.53-2.19,35.1,5.25,17.51,13.61,16.36,11.72,36.62,6.62,7.58-1.91,16.36-1.25,23.8-3.13,18.38-4.64,15.29-9.64,35.45-.99"/><path class="cls-1" d="m38.69,70.68c10.41-10.66,25.68-2.09,35.3,5.44,17.41,13.64,16.63,11.27,36.71,6.25,7.52-1.88,16.32-1.15,23.7-3.02,18.49-4.69,15.28-9.77,35.58-1.06"/><path class="cls-1" d="m38.93,70.54c10.55-10.82,25.83-2,35.51,5.64,17.31,13.66,16.91,10.83,36.8,5.88,7.45-1.85,16.29-1.06,23.6-2.92,18.59-4.74,15.25-9.9,35.7-1.13"/><path class="cls-1" d="m39.16,70.41c10.7-10.98,25.98-1.89,35.71,5.84,17.2,13.67,17.2,10.37,36.88,5.51,7.39-1.82,16.25-.97,23.5-2.83,18.7-4.8,15.23-10.03,35.82-1.19"/><path class="cls-1" d="m39.38,70.27c10.85-11.13,26.13-1.79,35.92,6.05,17.09,13.67,17.5,9.92,36.97,5.15,7.33-1.8,16.21-.89,23.4-2.74,18.8-4.85,15.2-10.16,35.93-1.26"/><path class="cls-1" d="m39.61,70.12c11.02-11.27,26.27-1.68,36.13,6.26,16.96,13.66,17.8,9.46,37.05,4.79,7.27-1.77,16.17-.81,23.31-2.66,18.91-4.9,15.16-10.29,36.05-1.32"/><path class="cls-1" d="m39.83,69.98c11.2-11.41,26.42-1.56,36.35,6.48,16.84,13.63,18.11,9.01,37.13,4.43,7.22-1.74,16.13-.73,23.23-2.58,19.01-4.95,15.12-10.42,36.16-1.38"/><path class="cls-1" d="m40.06,69.83c14.01-8.09,24.61-3.03,36.56,6.7,16.7,13.59,18.42,8.55,37.21,4.07,7.18-1.71,16.09-.66,23.14-2.5,19.12-5,15.08-10.54,36.27-1.44"/><path class="cls-1" d="m40.27,69.67c14.24-8.15,24.73-2.93,36.77,6.92,16.56,13.54,18.74,8.1,37.28,3.71,7.13-1.69,16.05-.59,23.06-2.44,19.22-5.05,15.03-10.67,36.38-1.5"/><path class="cls-1" d="m40.49,69.52c12.58-13.58,28.05,1.64,38.62,8.8,14.27,9.67,16.98,6.85,34.68,2.69,7.85-1.84,18.93-1.06,26.15-3.81,15.31-5.82,16.18-8.95,34.36-1.11"/><path class="cls-1" d="m40.7,69.36c12.73-13.65,28.1,1.74,38.78,8.92,14.32,9.63,17.14,6.56,34.82,2.42,7.82-1.83,18.92-.97,26.09-3.75,15.37-5.97,16.08-9.06,34.45-1.14"/><path class="cls-1" d="m40.92,69.2c12.9-13.7,28.13,1.85,38.93,9.05,14.37,9.59,17.3,6.27,34.94,2.15,7.8-1.82,18.91-.88,26.03-3.71,15.44-6.13,15.96-9.2,34.54-1.16"/><path class="cls-1" d="m41.14,69.02c13.08-13.73,28.17,1.97,39.08,9.2,14.41,9.54,17.47,5.98,35.07,1.88,7.78-1.81,18.89-.79,25.98-3.66,15.5-6.28,15.87-9.32,34.62-1.17"/><path class="cls-1" d="m41.36,68.84c13.27-13.75,28.19,2.1,39.23,9.35,14.45,9.49,17.64,5.68,35.19,1.61,7.78-1.8,18.85-.71,25.94-3.63l9.46-7.18c9.15-1.5,17.56.49,25.24,5.99"/><path class="cls-1" d="m41.58,68.66c13.48-13.76,28.21,2.24,39.38,9.51,14.5,9.43,17.81,5.37,35.3,1.34,7.78-1.79,18.81-.64,25.9-3.6,3.16-2.44,6.31-4.88,9.47-7.33,9.18-1.39,17.62.65,25.31,6.13"/><path class="cls-1" d="m41.81,68.48c13.7-13.76,28.22,2.39,39.53,9.67,14.65,9.44,17.88,4.76,35.41,1.08,7.69-1.61,18.9-.62,25.86-3.58,3.16-2.49,6.32-4.98,9.48-7.47,9.21-1.29,17.67.8,25.37,6.26"/><path class="cls-1" d="m42.03,68.29c13.94-13.74,28.23,2.54,39.68,9.84,14.69,9.37,18.06,4.44,35.52.81,7.7-1.6,18.85-.55,25.82-3.56,3.16-2.53,6.32-5.07,9.48-7.6,9.23-1.19,17.71.95,25.44,6.4"/><path class="cls-1" d="m42.25,68.09c17.69-9.73,25.09.71,39.82,10.01,14.72,9.29,18.24,4.13,35.63.54,7.72-1.59,18.8-.48,25.79-3.55,3.16-2.58,6.33-5.16,9.49-7.73,9.26-1.09,17.76,1.09,25.5,6.53"/><path class="cls-1" d="m42.48,67.9c17.95-9.65,25.05.89,39.97,10.19,14.75,9.2,18.43,3.82,35.73.28,7.75-1.58,18.75-.42,25.77-3.55,3.17-2.62,6.33-5.24,9.5-7.86,9.28-.99,17.8,1.23,25.55,6.66"/><path class="cls-1" d="m42.71,67.7c18.22-9.57,25.01,1.07,40.11,10.37,14.77,9.1,18.62,3.5,35.83.02,7.77-1.57,18.69-.36,25.74-3.55,3.17-2.66,6.34-5.32,9.51-7.98,9.31-.89,17.84,1.37,25.6,6.79"/><path class="cls-1" d="m42.94,67.49c18.49-9.46,24.97,1.25,40.26,10.56,14.79,9,18.81,3.18,35.92-.24,7.81-1.56,18.63-.3,25.73-3.56,3.17-2.7,6.35-5.4,9.52-8.1,9.33-.8,17.88,1.51,25.65,6.92"/><path class="cls-1" d="m43.17,67.29c18.78-9.35,24.91,1.45,40.4,10.75,14.8,8.89,19,2.87,36.01-.5,7.85-1.56,18.57-.24,25.71-3.57l9.53-8.21c9.35-.71,17.92,1.64,25.7,7.05"/><path class="cls-1" d="m43.4,67.08c19.07-9.22,24.85,1.66,40.54,10.95,14.81,8.78,19.2,2.55,36.1-.76,7.89-1.55,18.5-.19,25.7-3.59,3.18-2.77,6.36-5.54,9.54-8.31,9.37-.62,17.95,1.77,25.75,7.18"/><path class="cls-1" d="m43.63,66.87c19.37-9.07,24.79,1.87,40.68,11.15,14.82,8.65,19.41,2.24,36.18-1.02,7.93-1.54,18.44-.14,25.69-3.62,3.18-2.8,6.37-5.6,9.55-8.41,9.39-.54,17.98,1.9,25.79,7.31"/><path class="cls-1" d="m43.86,66.65c19.67-8.9,24.71,2.09,40.81,11.35,14.82,8.52,19.61,1.93,36.26-1.27,7.99-1.54,18.37-.09,25.69-3.65l9.56-8.5c9.4-.45,18.01,2.03,25.82,7.44"/><path class="cls-1" d="m44.09,66.43c19.99-8.72,24.64,2.32,40.95,11.56,14.81,8.39,19.82,1.62,36.33-1.53,8.04-1.53,18.3-.05,25.69-3.69,3.19-2.86,6.38-5.72,9.57-8.58,9.42-.37,18.04,2.15,25.86,7.57"/><path class="cls-1" d="m44.33,66.21c20.3-8.52,24.55,2.56,41.08,11.77,14.8,8.25,20.03,1.31,36.4-1.78,8.1-1.53,18.23-.01,25.7-3.74,3.19-2.89,6.39-5.78,9.58-8.66,9.43-.29,18.06,2.27,25.89,7.7"/><path class="cls-1" d="m44.57,65.99c20.62-8.3,24.46,2.81,41.21,11.99,14.78,8.1,20.25,1,36.47-2.02,8.17-1.52,18.16.03,25.71-3.79,3.2-2.91,6.39-5.82,9.59-8.74,9.45-.21,18.09,2.39,25.92,7.82"/><path class="cls-1" d="m44.81,65.77c20.94-8.06,24.36,3.06,41.34,12.2,14.75,7.94,20.46.7,36.54-2.27,8.23-1.52,18.09.06,25.72-3.85,3.2-2.93,6.4-5.87,9.6-8.8,9.46-.14,18.11,2.51,25.94,7.95"/><path class="cls-1" d="m45.05,65.54c21.26-7.8,24.27,3.33,41.47,12.42,14.72,7.78,20.68.4,36.6-2.51,8.31-1.52,18.01.1,25.74-3.92l9.61-8.86c9.47-.06,18.13,2.63,25.96,8.07"/><path class="cls-1" d="m45.29,65.31c21.59-7.52,24.16,3.6,41.59,12.64,14.68,7.62,20.91.1,36.66-2.75,8.39-1.52,17.94.12,25.76-3.99,3.21-2.97,6.41-5.94,9.62-8.92,9.48,0,18.14,2.74,25.98,8.2"/><path class="cls-1" d="m45.53,65.08c21.9-7.22,24.06,3.88,41.72,12.86,14.63,7.45,21.13-.19,36.71-2.98,8.47-1.52,17.87.15,25.79-4.07,3.21-2.99,6.42-5.98,9.63-8.96,9.49.08,18.16,2.85,26,8.32"/><path class="cls-1" d="m45.77,64.85c7.93-5.35,16.12-5.46,24.56-.34,7.38,3.7,13.64,8.76,18.77,15.17,13.45,4.39,22.34-3.17,36.35-5.28,5.59-.84,12.59.31,17.95-1.17,7.01-2.46,13-6.48,17.95-12.07,8.87.95,17.04,3.9,24.5,8.85"/><path class="cls-1" d="m46.02,64.62c8.03-5.17,16.27-5.24,24.72-.21,7.26,3.8,13.48,8.86,18.65,15.17,13.44,4.33,22.5-3.35,36.47-5.38,5.59-.81,12.59.31,17.95-1.17,6.97-2.6,12.98-6.67,18.02-12.2,8.87,1,17.04,3.98,24.49,8.95"/><path class="cls-1" d="m46.27,64.39c8.13-4.98,16.43-5.01,24.89-.07,7.14,3.9,13.32,8.96,18.52,15.17,13.42,4.28,22.66-3.53,36.58-5.48,5.59-.78,12.59.31,17.95-1.18,6.93-2.76,12.96-6.87,18.08-12.33,8.87,1.04,17.03,4.06,24.48,9.04"/><path class="cls-1" d="m46.51,64.15c8.23-4.78,16.58-4.76,25.05.06,7.03,4,13.16,9.06,18.4,15.17,13.41,4.23,22.82-3.71,36.69-5.58,5.59-.75,12.59.3,17.95-1.19,6.88-2.91,12.93-7.06,18.15-12.45,8.87,1.09,17.03,4.13,24.47,9.14"/><path class="cls-1" d="m46.77,63.91c8.32-4.57,16.73-4.5,25.21.2,6.91,4.1,13,9.16,18.28,15.17,13.4,4.19,22.96-3.89,36.8-5.68,5.59-.72,12.59.3,17.96-1.2,6.83-3.07,12.9-7.26,18.21-12.56,8.87,1.13,17.02,4.21,24.45,9.23"/><path class="cls-1" d="m47.02,63.67c8.41-4.35,16.87-4.23,25.37.35,6.79,4.2,12.84,9.26,18.16,15.18,13.39,4.15,23.11-4.07,36.9-5.77,5.59-.69,12.6.29,17.98-1.22,6.77-3.23,12.86-7.46,18.28-12.67,8.87,1.17,17.02,4.28,24.44,9.33"/><path class="cls-1" d="m47.27,63.44c8.5-4.12,17.01-3.96,25.53.49,6.67,4.3,12.69,9.36,18.05,15.18,13.38,4.11,23.25-4.24,36.99-5.87,5.6-.66,12.61.28,18-1.25,6.71-3.4,12.82-7.65,18.34-12.78,8.87,1.21,17.01,4.35,24.41,9.42"/><path class="cls-1" d="m47.53,63.2c8.58-3.9,17.14-3.69,25.68.64,6.55,4.4,12.53,9.47,17.93,15.19,13.37,4.08,23.38-4.42,37.08-5.97,5.6-.63,12.63.27,18.02-1.27,6.64-3.56,12.77-7.86,18.4-12.88,8.87,1.25,17,4.43,24.39,9.51"/><path class="cls-1" d="m47.78,62.96c8.66-3.68,17.27-3.42,25.83.79,6.43,4.5,12.37,9.57,17.82,15.19,13.36,4.04,23.51-4.59,37.16-6.06,5.6-.6,12.64.25,18.05-1.3,6.57-3.73,12.72-8.06,18.46-12.97,8.86,1.29,16.98,4.5,24.36,9.61"/><path class="cls-1" d="m48.04,62.72c8.74-3.47,17.39-3.16,25.98.94,6.31,4.6,12.21,9.67,17.71,15.2,12.97,3.9,24.04-4.33,37.23-6.15,5.71-.79,12.55.27,18.09-1.34,6.49-3.91,12.66-8.26,18.53-13.06,8.86,1.33,16.97,4.57,24.33,9.7"/><path class="cls-1" d="m48.3,62.48c8.81-3.26,17.51-2.89,26.12,1.09,6.19,4.7,12.06,9.77,17.61,15.21,12.9,3.85,24.22-4.45,37.3-6.25,5.52-.76,12.86.49,18.13-1.37,6.4-4.09,12.6-8.47,18.59-13.15,8.85,1.37,16.95,4.63,24.3,9.79"/><path class="cls-1" d="m48.57,62.24c8.88-3.05,17.63-2.63,26.26,1.25,6.07,4.8,11.9,9.87,17.5,15.21,12.83,3.8,24.39-4.57,37.36-6.34,5.53-.75,12.91.5,18.17-1.41,6.31-4.27,12.53-8.68,18.65-13.23,8.84,1.41,16.93,4.7,24.26,9.88"/><path class="cls-1" d="m48.83,62c8.94-2.84,17.74-2.38,26.4,1.41,5.95,4.9,11.75,9.98,17.4,15.22,12.75,3.76,24.57-4.69,37.41-6.43,5.53-.75,12.95.51,18.22-1.46,6.22-4.46,12.45-8.89,18.71-13.3,8.84,1.44,16.91,4.77,24.22,9.97"/><path class="cls-1" d="m49.1,61.76c9-2.65,17.85-2.12,26.53,1.57,5.83,5.01,11.6,10.08,17.3,15.22,12.66,3.71,24.74-4.81,37.46-6.52,5.54-.75,12.99.52,18.28-1.5,6.12-4.65,12.37-9.11,18.76-13.37,8.83,1.48,16.89,4.83,24.18,10.06"/><path class="cls-1" d="m49.36,61.52c9.06-2.45,17.95-1.87,26.66,1.74,5.71,5.11,11.45,10.18,17.21,15.23,12.57,3.66,24.92-4.92,37.5-6.61,5.55-.74,13.04.52,18.34-1.56,6.01-4.85,12.29-9.33,18.82-13.44,8.82,1.52,16.87,4.9,24.13,10.15"/><path class="cls-1" d="m49.63,61.28c9.12-2.26,18.04-1.63,26.79,1.9,5.59,5.21,11.3,10.29,17.12,15.23,12.46,3.61,25.1-5.04,37.54-6.7,5.56-.74,13.09.53,18.4-1.61,5.9-5.05,12.19-9.55,18.88-13.5,8.81,1.55,16.84,4.97,24.09,10.24"/><path class="cls-1" d="m49.91,61.04c9.17-2.07,18.14-1.38,26.91,2.07,5.47,5.31,11.14,10.39,17.02,15.23,12.35,3.56,25.28-5.14,37.57-6.78,5.58-.74,13.13.53,18.47-1.67,5.78-5.26,12.1-9.77,18.94-13.55,8.8,1.59,16.81,5.03,24.04,10.33"/><path class="cls-1" d="m50.18,60.81c9.22-1.89,18.23-1.15,27.03,2.24,5.35,5.41,10.99,10.48,16.92,15.23,12.23,3.51,25.46-5.24,37.6-6.86,5.6-.74,13.19.54,18.55-1.73,5.66-5.47,11.99-10.01,18.99-13.59,8.79,1.62,16.78,5.09,23.98,10.42"/><path class="cls-1" d="m50.46,60.57c9.26-1.72,18.31-.91,27.15,2.41,5.23,5.5,10.84,10.58,16.83,15.22,12.1,3.46,25.65-5.35,37.63-6.94,5.63-.75,13.24.54,18.63-1.79,5.54-5.7,11.88-10.24,19.05-13.64,8.78,1.66,16.75,5.16,23.92,10.5"/><path class="cls-1" d="m50.74,60.34c9.31-1.55,18.39-.68,27.26,2.59,5.11,5.6,10.69,10.67,16.73,15.21,11.43,3.77,26.26-5.5,37.65-7.01,5.66-.75,13.29.55,18.71-1.86,5.4-5.93,11.77-10.48,19.1-13.67,8.76,1.69,16.72,5.22,23.86,10.59"/><path class="cls-1" d="m51.02,60.11c9.35-1.38,18.47-.46,27.36,2.77,4.99,5.7,10.54,10.77,16.65,15.2,11.39,3.62,26.34-5.59,37.66-7.09,5.7-.76,13.34.55,18.8-1.93,5.27-6.17,11.65-10.73,19.15-13.7,8.75,1.72,16.68,5.28,23.8,10.68"/><path class="cls-1" d="m51.32,59.86c9.39-1.22,18.55-.24,27.47,2.94,4.88,5.8,10.4,10.86,16.57,15.18,11.34,3.47,26.43-5.67,37.67-7.16,5.74-.76,13.4.56,18.89-2,5.13-6.41,11.53-10.98,19.2-13.71,8.73,1.76,16.64,5.35,23.73,10.77"/><path class="cls-1" d="m51.63,59.62c9.43-1.07,18.62-.03,27.58,3.11,4.77,5.9,10.27,10.95,16.5,15.16,11.28,3.32,26.53-5.76,37.68-7.25,5.79-.77,13.46.56,19.01-2.08,4.98-6.67,11.4-11.25,19.26-13.74,8.72,1.79,16.61,5.41,23.67,10.85"/><path class="cls-1" d="m51.94,59.38c9.47-.93,18.7.17,27.69,3.29,4.66,6,10.14,11.04,16.43,15.13,11.2,3.17,26.62-5.85,37.68-7.33,5.85-.78,13.53.55,19.13-2.17,4.84-6.94,11.28-11.53,19.32-13.76,8.7,1.82,16.57,5.46,23.61,10.92"/><path class="cls-1" d="m52.26,59.15c9.51-.79,18.77.37,27.79,3.47,4.55,6.09,10.01,11.13,16.38,15.1,11.11,3.03,26.72-5.94,37.68-7.41,5.92-.79,13.6.56,19.26-2.26,4.7-7.21,11.16-11.8,19.38-13.76,8.69,1.85,16.54,5.52,23.55,11"/><path class="cls-1" d="m52.59,58.92c9.54-.65,18.84.57,27.89,3.66,4.45,6.19,9.9,11.22,16.33,15.07,11,2.88,26.83-6.03,37.67-7.49,6-.81,13.67.56,19.39-2.35,4.6-7.42,11.08-12.01,19.44-13.76,8.67,1.88,16.5,5.57,23.48,11.08"/><path class="cls-1" d="m52.92,58.7c9.58-.52,18.91.76,27.99,3.84,4.36,6.29,9.78,11.3,16.28,15.04,10.88,2.73,26.93-6.12,37.66-7.56,6.08-.82,13.75.57,19.53-2.45,4.5-7.63,11-12.22,19.5-13.76,8.66,1.91,16.47,5.63,23.42,11.16"/><path class="cls-1" d="m53.26,58.49c9.62-.4,18.97.95,28.08,4.03,4.27,6.38,9.68,11.39,16.25,15.01,10.74,2.59,27.03-6.2,37.64-7.63,6.17-.83,13.82.58,19.68-2.54,4.4-7.83,10.92-12.41,19.57-13.74,8.64,1.94,16.43,5.69,23.36,11.24"/><path class="cls-1" d="m53.6,58.28c9.65-.28,19.04,1.13,28.17,4.23,4.18,6.48,9.58,11.47,16.21,14.98,10.58,2.45,27.12-6.29,37.61-7.7,6.28-.84,13.9.59,19.84-2.63,4.31-8.03,10.86-12.6,19.63-13.72,8.63,1.98,16.39,5.75,23.29,11.32"/><path class="cls-1" d="m53.95,58.07c9.68-.17,19.1,1.31,28.25,4.43,4.1,6.56,9.5,11.54,16.19,14.94,10.41,2.32,27.22-6.38,37.58-7.76,6.38-.85,13.97.61,20-2.72,4.23-8.22,10.79-12.78,19.68-13.69,8.61,2.02,16.36,5.82,23.24,11.41"/><path class="cls-1" d="m54.31,57.88c9.71-.06,19.16,1.48,28.33,4.63,4.03,6.65,9.42,11.61,16.17,14.9,10.21,2.18,27.31-6.47,37.54-7.82,6.5-.86,14.05.63,20.17-2.82,4.15-8.39,10.72-12.95,19.72-13.68,8.6,2.07,16.34,5.91,23.19,11.52"/><path class="cls-1" d="m54.67,57.69c9.75.03,19.22,1.64,28.41,4.83,3.96,6.72,9.35,11.68,16.16,14.85,10,2.05,27.4-6.56,37.49-7.88,6.63-.87,14.14.65,20.35-2.91,4.07-8.55,10.66-13.11,19.75-13.66,8.59,2.12,16.31,6,23.15,11.64"/><path class="cls-1" d="m55.04,57.51c9.78.12,19.27,1.8,28.48,5.04,3.9,6.8,9.29,11.73,16.16,14.8,9.77,1.92,27.49-6.65,37.44-7.94,6.76-.88,14.22.68,20.53-3.01,4-8.71,10.6-13.25,19.79-13.63,8.58,2.18,16.29,6.09,23.11,11.75"/><path class="cls-1" d="m55.42,57.34c9.81.21,19.32,1.95,28.55,5.24,3.85,6.86,9.23,11.78,16.16,14.75,10.78,2.03,26.32-7.4,37.38-8,6.7-.36,14.55.56,20.73-3.1,3.94-8.87,10.55-13.4,19.82-13.59,8.57,2.23,16.26,6.18,23.07,11.86"/><path class="cls-1" d="m55.8,57.17c9.84.28,19.37,2.1,28.6,5.45,3.8,6.92,9.19,11.82,16.18,14.69,10.55,1.91,26.37-7.48,37.31-8.05,6.85-.36,14.64.6,20.92-3.2,3.88-9.01,10.5-13.53,19.86-13.54,8.56,2.28,16.23,6.28,23.03,11.98"/><path class="cls-1" d="m56.19,57.01c9.87.35,19.42,2.23,28.66,5.66,3.77,6.97,9.16,11.84,16.19,14.63,10.3,1.79,26.41-7.56,37.24-8.1,7.02-.35,14.72.64,21.13-3.3,3.82-9.16,10.45-13.65,19.9-13.49,8.55,2.34,16.21,6.37,22.98,12.1"/><path class="cls-1" d="m56.59,56.86c9.9.41,19.47,2.36,28.7,5.88,3.74,7,9.14,11.86,16.22,14.56,10.03,1.67,26.45-7.64,37.15-8.15,7.19-.34,14.81.68,21.34-3.4,3.77-9.29,10.42-13.77,19.93-13.43,8.53,2.4,16.18,6.47,22.94,12.22"/><path class="cls-1" d="m56.99,56.72c9.93.46,19.51,2.49,28.75,6.09,3.72,7.03,9.14,11.86,16.26,14.49,9.74,1.55,26.47-7.72,37.06-8.2,7.37-.33,14.9.73,21.56-3.5,3.73-9.42,10.38-13.87,19.97-13.35,8.52,2.45,16.15,6.57,22.89,12.34"/><path class="cls-1" d="m57.4,56.59c9.96.5,19.55,2.6,28.78,6.31,3.71,7.05,9.14,11.86,16.3,14.41,9.44,1.44,26.49-7.8,36.97-8.25,7.55-.32,15,.78,21.78-3.59,3.68-9.54,10.35-13.97,20-13.27,8.51,2.51,16.12,6.67,22.84,12.46"/><path class="cls-1" d="m57.81,56.46c10.03.52,19.66,2.72,28.9,6.61,3.68,7.03,9.1,11.78,16.26,14.24,9.12,1.35,26.49-7.88,36.86-8.29,7.74-.3,15.09.84,22.01-3.7,3.65-9.66,10.33-14.05,20.03-13.19,8.49,2.57,16.09,6.77,22.79,12.59"/><path class="cls-1" d="m58.24,56.35c10.11.53,19.78,2.84,29.02,6.93,3.65,7,9.06,11.69,16.22,14.06,8.81,1.26,26.48-7.96,36.75-8.33,7.94-.29,15.18.9,22.25-3.8,3.62-9.77,10.31-14.13,20.07-13.09,8.48,2.63,16.06,6.87,22.75,12.71"/><path class="cls-1" d="m58.67,56.24c10.2.54,19.91,2.95,29.13,7.24,3.62,6.98,9.02,11.6,16.19,13.87,8.51,1.18,26.44-8.04,36.62-8.37,8.14-.27,15.28.97,22.49-3.9,3.59-9.87,10.29-14.2,20.1-12.98,8.46,2.69,16.03,6.97,22.7,12.83"/><path class="cls-1" d="m59.1,56.14c10.28.54,20.03,3.06,29.24,7.56,3.59,6.96,8.98,11.51,16.16,13.67,8.22,1.11,26.39-8.11,36.49-8.41,8.35-.25,15.38,1.05,22.74-4,3.57-9.96,10.28-14.25,20.14-12.87,8.45,2.75,15.99,7.07,22.64,12.96"/><path class="cls-1" d="m59.54,56.05c10.37.53,20.15,3.16,29.35,7.88,3.56,6.93,8.94,11.42,16.14,13.46,7.94,1.04,26.32-8.18,36.36-8.45,8.56-.22,15.47,1.12,22.99-4.11,3.56-10.05,10.28-14.3,20.17-12.74,8.43,2.81,15.96,7.17,22.59,13.08"/><path class="cls-1" d="m59.99,55.96c10.46.52,20.28,3.26,29.46,8.2,3.54,6.91,8.91,11.32,16.12,13.24,7.67.98,26.23-8.24,36.23-8.47,8.77-.2,15.57,1.18,23.24-4.23,3.55-10.13,10.28-14.34,20.2-12.61,8.41,2.87,15.92,7.27,22.54,13.21"/><path class="cls-1" d="m60.44,55.89c10.55.51,20.41,3.35,29.56,8.52,3.51,6.89,8.88,11.23,16.11,13.02,7.42.92,26.13-8.3,36.09-8.48,8.82-.17,15.88,1.4,23.49-4.35,3.54-10.2,10.29-14.36,20.23-12.47,8.39,2.93,15.89,7.38,22.48,13.33"/><path class="cls-1" d="m60.9,55.82c10.65.49,20.53,3.43,29.65,8.85,3.49,6.86,8.86,11.13,16.1,12.79,7.2.87,26.01-8.35,35.95-8.49,9.01-.13,15.99,1.46,23.74-4.49,3.54-10.27,10.3-14.37,20.26-12.31,8.37,2.99,15.85,7.48,22.43,13.46"/><path class="cls-1" d="m61.37,55.77c10.75.46,20.66,3.52,29.74,9.17,3.47,6.84,8.84,11.03,16.1,12.55,7.01.82,25.87-8.39,35.81-8.49,9.21-.09,16.11,1.52,23.99-4.63,3.55-10.33,10.31-14.38,20.3-12.15,8.35,3.05,15.81,7.58,22.37,13.58"/><path class="cls-1" d="m61.84,55.72c10.85.43,20.79,3.59,29.83,9.49,3.46,6.82,8.83,10.92,16.1,12.31,6.74.76,25.79-8.39,35.66-8.48,9.42-.08,16.22,1.58,24.23-4.78,3.56-10.37,10.34-14.37,20.33-11.98,8.33,3.11,15.77,7.68,22.31,13.71"/><path class="cls-1" d="m62.32,55.68c10.95.4,20.92,3.67,29.91,9.8,3.44,6.79,8.82,10.81,16.12,12.06,6.58.72,25.63-8.4,35.52-8.45,9.63-.05,16.33,1.63,24.48-4.94,3.58-10.41,10.36-14.34,20.36-11.8,8.31,3.18,15.73,7.79,22.25,13.83"/><path class="cls-1" d="m62.81,55.65c11.06.36,21.05,3.74,29.99,10.12,3.43,6.77,8.81,10.71,16.13,11.81,6.46.68,25.45-8.41,35.37-8.42,9.84-.01,16.45,1.67,24.72-5.11,3.6-10.44,10.39-14.31,20.39-11.6,8.29,3.24,15.69,7.89,22.19,13.96"/><path class="cls-1" d="m63.3,55.64c11.16.32,21.18,3.8,30.06,10.43,3.43,6.75,8.81,10.59,16.16,11.54,6.39.64,25.24-8.42,35.21-8.39,10.06.03,16.56,1.7,24.97-5.28,3.63-10.46,10.43-14.27,20.42-11.4,8.27,3.3,15.64,7.99,22.12,14.08"/><path class="cls-1" d="m63.79,55.63c11.27.28,21.31,3.86,30.13,10.74,3.42,6.72,8.82,10.48,16.19,11.27,7.68-5.19,15.97-7.92,24.86-8.18,3.41-.79,6.8-.84,10.19-.16,10.27.08,16.68,1.72,25.21-5.47,3.66-10.48,10.47-14.21,20.45-11.19,8.24,3.36,15.6,8.09,22.06,14.2"/><path class="cls-1" d="m64.29,55.63c11.37.23,21.44,3.91,30.19,11.04,3.42,6.7,8.83,10.36,16.23,11,7.67-5.38,15.97-8.12,24.91-8.21,3.34-.69,6.67-.71,9.99-.07,10.5.13,16.79,1.73,25.45-5.67,3.7-10.48,10.52-14.13,20.47-10.96,8.22,3.42,15.55,8.19,21.99,14.33"/><path class="cls-1" d="m64.8,55.64c11.48.18,21.56,3.96,30.24,11.34,3.43,6.67,8.85,10.25,16.28,10.72,7.65-5.56,15.97-8.31,24.94-8.23,3.28-.59,6.54-.58,9.79.02,10.73.19,16.9,1.73,25.69-5.87,3.74-10.47,10.58-14.05,20.5-10.73,8.19,3.48,15.5,8.29,21.92,14.45"/><path class="cls-1" d="m65.31,55.66c11.59.13,21.69,4.01,30.29,11.64,3.44,6.65,8.88,10.13,16.33,10.43,7.64-5.74,15.97-8.49,24.97-8.24,3.22-.49,6.42-.45,9.6.11,10.96.25,17.01,1.71,25.92-6.09,3.79-10.46,10.63-13.95,20.53-10.49,8.17,3.54,15.45,8.4,21.85,14.57"/><path class="cls-1" d="m65.83,55.69c11.7.07,21.81,4.05,30.33,11.92,3.45,6.62,8.91,10,16.4,10.14,7.63-5.91,15.96-8.66,24.98-8.24,3.16-.4,6.3-.33,9.42.2,11.2.31,17.12,1.69,26.16-6.31,3.85-10.43,10.7-13.84,20.56-10.23,8.14,3.6,15.4,8.49,21.78,14.69"/><path class="cls-1" d="m66.35,55.73c11.81.02,21.93,4.08,30.36,12.2,3.47,6.6,8.96,9.88,16.47,9.84,7.62-6.07,15.95-8.81,24.99-8.23,3.1-.31,6.18-.21,9.24.29,11.45.39,17.23,1.65,26.39-6.55,3.91-10.39,10.77-13.71,20.59-9.96,8.11,3.66,15.35,8.59,21.7,14.81"/><path class="cls-1" d="m66.88,55.78c11.91-.05,22.04,4.11,30.39,12.48,3.49,6.57,9,9.75,16.55,9.54,7.61-6.22,15.94-8.96,24.98-8.21,3.04-.22,6.07-.1,9.07.37,11.7.46,17.33,1.59,26.62-6.79,3.97-10.34,10.84-13.57,20.61-9.69,8.08,3.72,15.29,8.69,21.63,14.92"/><path class="cls-1" d="m67.42,55.84c12.02-.11,22.15,4.14,30.4,12.74,3.51,6.54,9.06,9.62,16.64,9.23,7.61-6.36,15.93-9.09,24.97-8.18,2.99-.14,5.96.01,8.91.46,11.97.55,17.43,1.52,26.85-7.05,4.05-10.28,10.92-13.42,20.64-9.4,8.05,3.78,15.24,8.79,21.55,15.04"/><path class="cls-1" d="m67.96,55.91c12.12-.18,22.26,4.15,30.41,13,3.55,6.52,9.13,9.49,16.74,8.92,7.6-6.5,15.91-9.21,24.94-8.14,2.93-.06,5.85.12,8.75.54,12.23.64,17.53,1.43,27.07-7.32,4.12-10.21,11.01-13.25,20.66-9.1,8.02,3.83,15.18,8.88,21.47,15.15"/><path class="cls-1" d="m68.5,55.99c12.23-.25,22.36,4.16,30.41,13.25,3.58,6.49,9.2,9.36,16.85,8.6,7.59-6.63,15.9-9.32,24.91-8.08,2.88.02,5.75.23,8.6.63,12.51.74,17.63,1.33,27.3-7.6,4.21-10.13,11.1-13.06,20.69-8.79,7.99,3.89,15.12,8.98,21.39,15.26"/><path class="cls-1" d="m69.05,56.08c12.32-.33,22.46,4.17,30.41,13.48,3.63,6.47,9.28,9.23,16.96,8.28,7.59-6.74,15.88-9.41,24.86-8.02,2.83.09,5.65.33,8.45.71,12.8.84,17.72,1.21,27.52-7.88,4.3-10.04,11.2-12.86,20.71-8.46,7.96,3.95,15.06,9.07,21.3,15.37"/><path class="cls-1" d="m69.61,56.19c12.42-.4,22.55,4.17,30.39,13.71,3.68,6.44,9.37,9.09,17.09,7.96,7.58-6.85,15.85-9.5,24.81-7.94,2.78.16,5.55.43,8.32.79,13.09.96,17.8,1.07,27.74-8.18,4.39-9.93,11.3-12.64,20.74-8.13,7.92,4,15,9.16,21.22,15.48"/><path class="cls-1" d="m70.17,56.3c12.52-.48,22.64,4.16,30.37,13.92,3.73,6.41,9.48,8.96,17.23,7.63,7.58-6.95,15.83-9.56,24.74-7.85,2.74.23,5.46.52,8.18.88,13.39,1.08,17.88.91,27.95-8.5,4.49-9.81,11.41-12.4,20.76-7.78,7.89,4.06,14.93,9.25,21.13,15.59"/><path class="cls-1" d="m70.73,56.42c12.61-.57,22.72,4.14,30.33,14.13,3.79,6.39,9.59,8.82,17.38,7.29,7.58-7.03,15.8-9.61,24.66-7.75,2.69.29,5.38.61,8.06.96,13.71,1.21,17.96.73,28.16-8.82,4.6-9.68,11.52-12.15,20.79-7.42,7.85,4.11,14.87,9.34,21.04,15.69"/><path class="cls-1" d="m71.29,56.54c12.7-.65,22.8,4.13,30.3,14.33,3.86,6.36,9.71,8.68,17.54,6.95,7.57-7.11,15.76-9.65,24.57-7.64,2.65.35,5.29.7,7.94,1.04,14.03,1.34,18.03.52,28.37-9.15,4.71-9.53,11.64-11.88,20.81-7.05,7.82,4.16,14.8,9.43,20.94,15.79"/><path class="cls-1" d="m71.85,56.67c12.78-.72,22.87,4.12,30.26,14.53,3.93,6.34,9.84,8.54,17.71,6.61,19.96-1.71,16.26-8.05,32.3-6.39,14.37,1.49,18.09.29,28.58-9.5,16.41-15.31,26.99-4.05,41.68,9.22"/><path class="cls-1" d="m72.42,56.79c12.86-.78,22.93,4.13,30.21,14.73,4.01,6.31,9.98,8.4,17.89,6.27,20.86-2.04,15.78-7.99,32.08-6.18,14.71,1.64,18.14.04,28.78-9.86,16.32-15.17,27.27-3.34,41.61,9.71"/><path class="cls-1" d="m72.98,56.9c12.94-.84,22.99,4.14,30.15,14.93,4.1,6.29,10.13,8.26,18.08,5.92,21.66-2.38,15.36-7.92,31.85-5.95,15.07,1.8,18.18-.24,28.98-10.23,16.24-15.01,27.55-2.63,41.53,10.22"/><path class="cls-1" d="m73.55,57.02c13.01-.89,23.04,4.15,30.09,15.12,4.2,6.26,10.29,8.12,18.29,5.57,22.35-2.71,14.99-7.83,31.63-5.71,15.44,1.97,18.21-.55,29.18-10.61,16.16-14.82,27.82-1.9,41.45,10.73"/><path class="cls-1" d="m74.12,57.13c13.07-.93,23.08,4.18,30.01,15.31,4.3,6.24,10.47,7.98,18.51,5.21,22.92-3.04,14.66-7.73,31.39-5.46,15.82,2.15,18.24-.89,29.37-11,16.09-14.61,28.09-1.16,41.36,11.25"/><path class="cls-1" d="m74.68,57.24c13.13-.96,23.11,4.21,29.93,15.5,4.41,6.22,10.65,7.84,18.74,4.86,23.39-3.36,14.39-7.61,31.15-5.2,16.22,2.34,18.25-1.26,29.56-11.41,16.02-14.38,28.36-.41,41.28,11.78"/><path class="cls-1" d="m75.25,57.35c13.18-.99,23.13,4.24,29.84,15.68,4.52,6.2,10.85,7.7,18.99,4.5,23.74-3.66,14.15-7.47,30.91-4.92,16.63,2.53,18.25-1.66,29.74-11.83,15.96-14.12,28.62.36,41.19,12.32"/><path class="cls-1" d="m75.82,57.46c13.23-1,23.15,4.29,29.74,15.86,4.65,6.18,11.06,7.56,19.24,4.14,24-3.95,13.95-7.32,30.66-4.63,17.03,2.74,18.24-2.08,29.91-12.24,15.9-13.85,28.86,1.1,41.1,12.85"/><path class="cls-1" d="m76.4,57.57c13.27-1.01,23.15,4.33,29.64,16.04,4.78,6.17,11.28,7.43,19.52,3.78,24.17-4.21,13.78-7.14,30.4-4.33,17.32,2.93,18.26-2.43,30.03-12.55,15.9-13.67,29.05,1.63,41.07,13.27"/><path class="cls-1" d="m76.97,57.67c13.3-1.01,23.14,4.39,29.52,16.2,4.91,6.16,11.52,7.29,19.8,3.41,24.25-4.45,13.64-6.94,30.14-4.02,17.6,3.12,18.28-2.79,30.14-12.85,15.9-13.49,29.22,2.16,41.03,13.69"/><path class="cls-1" d="m77.54,57.77c13.33-1.01,23.12,4.45,29.39,16.36,5.06,6.15,11.76,7.16,20.1,3.05,24.25-4.66,13.53-6.72,29.87-3.69,17.87,3.31,18.3-3.16,30.25-13.16,15.9-13.29,29.38,2.68,40.98,14.1"/><path class="cls-1" d="m78.11,57.87c13.34-.99,23.09,4.51,29.26,16.51,5.21,6.14,12.02,7.04,20.42,2.68,24.18-4.85,13.43-6.48,29.6-3.36,18.13,3.5,18.33-3.55,30.36-13.46,15.9-13.1,29.53,3.2,40.92,14.51"/><path class="cls-1" d="m78.68,57.97c13.35-.97,23.05,4.58,29.11,16.66,5.37,6.14,12.29,6.91,20.74,2.31,7.46-6.82,14.9-8.52,22.32-5.09,2.26.93,4.6,1.62,7,2.08,6.59,2.72,13.16,2.45,19.69-.8,3.6-4.32,7.19-8.64,10.79-12.97,15.89-12.9,29.67,3.7,40.87,14.92"/><path class="cls-1" d="m79.25,58.07c13.35-.94,23,4.66,28.95,16.79,5.54,6.15,12.57,6.8,21.09,1.94,7.44-6.69,14.79-8.29,22.06-4.81,2.25.96,4.58,1.68,6.97,2.17,6.67,2.76,13.29,2.44,19.85-.96,3.58-4.37,7.15-8.74,10.73-13.11,17.11-11.01,28.68,3.06,40.8,15.32"/><path class="cls-1" d="m79.82,58.16c13.34-.9,22.94,4.74,28.78,16.92,5.71,6.16,12.86,6.69,21.45,1.58,26.5-5.84,12.71-1.58,28.74-2.26,6.75,2.79,13.42,2.42,20.01-1.13,3.56-4.41,7.12-8.83,10.67-13.24,17.06-10.88,28.84,3.59,40.73,15.71"/><path class="cls-1" d="m80.39,58.25c13.32-.86,22.86,4.82,28.6,17.03,5.89,6.18,13.16,6.59,21.83,1.21,26.71-6.02,12.44-1.18,28.44-1.87,6.83,2.83,13.55,2.39,20.17-1.31,3.54-4.45,7.08-8.91,10.62-13.36,16.45-10.41,29.73,3.56,40.65,16.1"/><path class="cls-1" d="m80.96,58.34c13.29-.8,22.77,4.91,28.41,17.14,6.07,6.21,13.48,6.49,22.22.84,26.85-6.16,12.18-.77,28.13-1.47,6.91,2.86,13.69,2.36,20.32-1.49,3.52-4.49,7.04-8.98,10.56-13.48,16.41-10.29,29.85,4.09,40.57,16.48"/><path class="cls-1" d="m81.53,58.42c13.26-.74,22.66,5,28.21,17.23,6.26,6.25,13.8,6.41,22.63.47,26.89-6.24,11.93-.35,27.82-1.05,7,2.89,13.82,2.33,20.48-1.68,3.5-4.53,7-9.05,10.51-13.58,16.36-10.17,29.95,4.62,40.48,16.86"/><path class="cls-1" d="m82.09,58.51c13.21-.68,22.54,5.09,28,17.31,6.46,6.3,14.14,6.34,23.06.1,26.86-6.27,11.7.07,27.5-.61,7.08,2.91,13.96,2.29,20.63-1.89,3.48-4.56,6.97-9.12,10.45-13.67,16.31-10.05,30.05,5.13,40.39,17.23"/><path class="cls-1" d="m82.66,58.59c13.15-.6,22.4,5.19,27.77,17.37,6.66,6.37,14.49,6.28,23.5-.26,26.75-6.25,11.47.5,27.17-.17,7.17,2.94,14.1,2.24,20.77-2.1,3.46-4.59,6.93-9.17,10.39-13.76,16.26-9.93,30.13,5.64,40.29,17.59"/><path class="cls-1" d="m83.22,58.66c13.08-.52,22.25,5.29,27.54,17.43,6.86,6.44,14.84,6.24,23.95-.6,26.61-6.19,11.24.91,26.85.26,7.26,2.96,14.23,2.19,20.92-2.32,3.45-4.61,6.89-9.22,10.34-13.83,16.21-9.8,30.21,6.13,40.18,17.95"/><path class="cls-1" d="m83.79,58.74c12.99-.43,22.09,5.4,27.29,17.47,7.06,6.52,15.19,6.21,24.4-.91,26.45-6.08,11.01,1.32,26.53.69,7.35,2.98,14.37,2.13,21.06-2.54l10.28-13.9c16.15-9.68,30.28,6.62,40.06,18.3"/><path class="cls-1" d="m84.34,58.81c12.9-.33,21.91,5.5,27.02,17.49,7.26,6.61,15.54,6.21,24.86-1.2,26.27-5.94,10.78,1.71,26.22,1.11,7.44,2.99,14.51,2.06,21.2-2.78,3.41-4.65,6.82-9.3,10.23-13.95,16.09-9.55,30.33,7.1,39.94,18.65"/><path class="cls-1" d="m84.9,58.88c12.79-.23,21.71,5.61,26.75,17.49,7.46,6.71,15.9,6.22,25.33-1.46,26.06-5.77,10.55,2.1,25.91,1.51,7.54,3,14.65,1.99,21.34-3.03,3.39-4.66,6.78-9.33,10.17-13.99,16.03-9.42,30.38,7.57,39.82,18.99"/><path class="cls-1" d="m85.46,58.95c12.67-.11,21.5,5.72,26.46,17.49,7.65,6.82,16.25,6.25,25.79-1.7,25.81-5.56,10.33,2.47,25.61,1.91,7.64,3.01,14.79,1.92,21.47-3.28,3.37-4.67,6.74-9.35,10.11-14.02,15.96-9.29,30.41,8.03,39.68,19.32"/><path class="cls-1" d="m86.01,59.01c12.55,0,21.28,5.83,26.18,17.49,7.86,6.91,16.61,6.26,26.25-1.94,25.51-5.32,10.11,2.84,25.31,2.3,7.73,3.02,14.93,1.83,21.6-3.55,3.35-4.68,6.71-9.36,10.06-14.05,15.89-9.16,30.44,8.49,39.54,19.65"/><path class="cls-1" d="m86.56,59.07c12.48.66,21.23,6.6,26.23,17.84,7.1,5.39,14.21,5.26,21.35-.39,13.81-5.31,18.22-.77,30.75.48,5.28,2.35,10.76,2.19,16.44-.46,5.49-9.1,12.94-15.95,22.33-20.54,11.86-1.43,25.5,15.51,31.65,23.16"/><path class="cls-1" d="m87.1,59.13c12.35.84,21,6.81,25.97,17.89,7.24,5.33,14.46,5.17,21.64-.49,13.96-5.39,17.98-.62,30.58.66,5.33,2.37,10.85,2.17,16.56-.62,5.32-9.3,12.75-16.14,22.31-20.51,11.83-1.28,25.35,15.65,31.46,23.33"/><path class="cls-1" d="m87.65,59.18c12.21,1.03,20.78,7.02,25.71,17.95,7.38,5.26,14.69,5.07,21.94-.59,14.11-5.47,17.74-.47,30.41.84,5.39,2.4,10.95,2.14,16.69-.78,5.15-9.5,12.57-16.32,22.28-20.46,11.81-1.13,25.19,15.79,31.28,23.49"/><path class="cls-1" d="m88.19,59.23c12.07,1.22,20.55,7.22,25.45,18.01,7.52,5.18,14.93,4.95,22.24-.7,14.26-5.53,17.49-.32,30.23,1.01,5.44,2.43,11.05,2.11,16.81-.94,4.98-9.69,12.39-16.5,22.25-20.41,11.78-.98,25.03,15.92,31.09,23.64"/><path class="cls-1" d="m88.72,59.28c11.93,1.41,20.33,7.44,25.19,18.07,7.66,5.09,15.17,4.82,22.53-.81,14.4-5.59,17.25-.18,30.06,1.19,5.5,2.45,11.14,2.08,16.92-1.12,4.81-9.88,12.22-16.66,22.22-20.35,11.74-.82,24.86,16.05,30.89,23.78"/><path class="cls-1" d="m89.25,59.33c11.78,1.6,20.09,7.65,24.94,18.13,7.79,4.99,15.4,4.68,22.81-.92,14.54-5.64,17.01-.03,29.88,1.36,5.56,2.47,11.24,2.04,17.04-1.3,4.66-10.07,12.05-16.83,22.18-20.28,11.71-.67,24.68,16.17,30.69,23.92"/><path class="cls-1" d="m89.78,59.37c11.63,1.79,19.86,7.86,24.68,18.2,7.92,4.87,15.62,4.52,23.1-1.04,14.67-5.68,16.78.12,29.7,1.54,5.62,2.49,11.33,2,17.15-1.49,4.5-10.25,11.88-16.98,22.15-20.21,11.67-.52,24.51,16.28,30.48,24.05"/><path class="cls-1" d="m90.31,59.41c20,9.1,24.95,25.95,47.81,17.12,14.8-5.72,16.54.27,29.52,1.71,5.68,2.51,11.43,1.95,17.26-1.69,4.35-10.42,11.72-17.13,22.11-20.12,11.63-.37,24.32,16.39,30.26,24.17"/><path class="cls-1" d="m90.82,59.44c19.91,9.45,24.85,25.91,47.84,17.06,14.91-5.74,16.31.42,29.35,1.88,5.74,2.53,11.53,1.9,17.37-1.9,4.21-10.6,11.57-17.27,22.07-20.03,11.58-.22,24.14,16.49,30.04,24.28"/><path class="cls-1" d="m91.34,59.47c19.82,9.8,24.75,25.86,47.86,17.01,15.02-5.75,16.08.57,29.16,2.05,5.8,2.54,11.63,1.84,17.47-2.11,4.07-10.76,11.41-17.4,22.02-19.93,11.54-.07,23.95,16.58,29.81,24.39"/><path class="cls-1" d="m91.85,59.5c19.74,10.16,24.63,25.81,47.88,16.95,15.12-5.76,15.86.73,28.98,2.22,5.87,2.55,11.73,1.78,17.57-2.33,3.94-10.93,11.26-17.53,21.98-19.81,11.49.08,23.75,16.67,29.58,24.49"/><path class="cls-1" d="m92.35,59.53c19.66,10.52,24.51,25.74,47.9,16.9,15.21-5.75,15.63.88,28.8,2.39,5.94,2.56,11.83,1.71,17.67-2.56,3.81-11.08,11.12-17.65,21.93-19.69,11.43.22,23.55,16.75,29.34,24.58"/><path class="cls-1" d="m92.85,59.55c19.6,10.89,24.37,25.66,47.92,16.83,15.28-5.73,15.41,1.04,28.62,2.55,6,2.57,11.93,1.64,17.76-2.8,3.68-11.23,10.98-17.76,21.88-19.56,11.37.37,23.35,16.82,29.1,24.66"/><path class="cls-1" d="m93.34,59.57c19.54,11.27,24.23,25.56,47.94,16.77,15.35-5.69,15.2,1.2,28.43,2.72,6.07,2.57,12.03,1.56,17.85-3.05,3.57-11.38,10.84-17.86,21.83-19.43,11.31.51,23.15,16.88,28.84,24.73"/><path class="cls-1" d="m93.83,59.58c19.49,11.66,24.07,25.46,47.96,16.7,15.39-5.64,14.99,1.37,28.25,2.89,22.46,2.57,20.46-23.7,39.71-22.58,11.25.66,22.94,16.94,28.59,24.79"/><path class="cls-1" d="m94.31,59.59c19.46,12.05,23.9,25.33,47.97,16.62,15.42-5.58,14.78,1.53,28.06,3.05,22.45,2.57,20.45-24.06,39.74-22.68,11.18.8,22.72,17,28.32,24.85"/><path class="cls-1" d="m94.78,59.6c19.43,12.46,23.72,25.2,47.98,16.55,15.44-5.51,14.58,1.7,27.87,3.22,22.43,2.55,20.43-24.42,39.76-22.79,11.1.94,22.51,17.04,28.05,24.9"/></g></g></g></g></svg>