<?xml version="1.0" encoding="utf-8"?>
<!-- Generator: Adobe Illustrator 27.1.1, SVG Export Plug-In . SVG Version: 6.00 Build 0)  -->
<svg version="1.1" xmlns="http://www.w3.org/2000/svg" xmlns:xlink="http://www.w3.org/1999/xlink" x="0px" y="0px"
	 viewBox="0 0 100 100" style="enable-background:new 0 0 100 100;" xml:space="preserve">
<style type="text/css">
	.st0{fill:#C4B198;}
	.st1{fill:#E95A6D;}
	.st2{fill:#A68E73;}
	.st3{fill:#FFFFFF;}
	.st4{fill:#C30D23;}
	.st5{fill:#FBEEDB;}
	.st6{fill:#E8D0A0;}
	.st7{fill:#727171;}
	.st8{fill:#3E3A39;}
	.st9{fill:none;}
	.st10{fill:#3F250F;}
	.st11{fill:#FBEEDB;stroke:#000000;stroke-width:2;stroke-miterlimit:10;}
	.st12{fill:#F4E5D5;}
	.st13{clip-path:url(#SVGID_00000067213219069645338190000003571033479154949005_);}
	.st14{clip-path:url(#SVGID_00000124153626164072453600000004705280619222960290_);}
	.st15{fill:#040000;}
	.st16{opacity:0.71;fill:#FFFFFF;}
	.st17{stroke:#000000;stroke-miterlimit:10;}
	.st18{clip-path:url(#SVGID_00000002377816744960185590000002360394589132631984_);}
	.st19{fill:#9C692F;}
	.st20{clip-path:url(#SVGID_00000091704902776867358190000002928479876092440499_);}
	.st21{stroke:#000000;stroke-width:0.9085;stroke-miterlimit:10;}
	.st22{stroke:#000000;stroke-width:0.7931;stroke-miterlimit:10;}
	.st23{stroke:#000000;stroke-width:0.9639;stroke-miterlimit:10;}
	.st24{clip-path:url(#SVGID_00000164472158197974654050000011265985530489320114_);}
	.st25{clip-path:url(#SVGID_00000179618282302462481990000004434619714975624612_);}
	.st26{stroke:#000000;stroke-width:0.8829;stroke-miterlimit:10;}
	.st27{clip-path:url(#SVGID_00000112593954714519952390000000573669150849075600_);}
	.st28{fill:#FFFFFF;stroke:#000000;stroke-width:0.6048;stroke-miterlimit:10;}
	.st29{fill:#6A3906;}
	.st30{fill:#F39800;}
	.st31{fill:#FBEEDB;stroke:#000000;stroke-width:1.9275;stroke-miterlimit:10;}
	.st32{stroke:#000000;stroke-width:0.5;stroke-miterlimit:10;}
	.st33{fill:#FFFFFF;stroke:#000000;stroke-width:0.2881;stroke-miterlimit:10;}
	.st34{fill:#E83828;}
	.st35{fill:#F9CAA9;}
	.st36{fill:#FBEEDB;stroke:#000000;stroke-width:0.3279;stroke-miterlimit:10;}
	.st37{fill:#E3B3D0;}
	.st38{fill:#C4B198;stroke:#000000;stroke-width:2;stroke-miterlimit:10;}
	.st39{fill:#F4BBBA;}
	.st40{stroke:#000000;stroke-width:0.5542;stroke-miterlimit:10;}
	.st41{fill:#FFFFFF;stroke:#000000;stroke-width:0.3193;stroke-miterlimit:10;}
	.st42{font-family:'Arya-Double';}
	.st43{font-size:79.5154px;}
	.st44{letter-spacing:-15;}
	.st45{font-size:15.1443px;}
	.st46{opacity:0.5;}
	.st47{opacity:0.08;fill:none;stroke:#FFFFFF;stroke-width:0.4488;stroke-miterlimit:10;}
	.st48{opacity:0.5;clip-path:url(#SVGID_00000138557307081798604080000017021435375638039223_);}
</style>
<g id="圖層_1">
	<circle class="st8" cx="49.58" cy="50" r="47.88"/>
	<text transform="matrix(1 0 0 1 13.4973 78.9941)"><tspan x="0" y="0" class="st3 st42 st43 st44">T</tspan><tspan x="29.74" y="0" class="st3 st42 st45">rend</tspan></text>
	<g>
		<defs>
			<circle id="SVGID_00000098925319505607023880000009694884427587282609_" cx="49.27" cy="50" r="47.88"/>
		</defs>
		<clipPath id="SVGID_00000029739114820922306690000009237064089931299004_">
			<use xlink:href="#SVGID_00000098925319505607023880000009694884427587282609_"  style="overflow:visible;"/>
		</clipPath>
		<g style="opacity:0.5;clip-path:url(#SVGID_00000029739114820922306690000009237064089931299004_);">
			<g>
				<path class="st47" d="M-67.54,69.92c23.37,2.06,25.92,10.31,41.41,23.92c17.28,15.19,29.01,7.63,42.9-6.96"/>
				<path class="st47" d="M-67.41,69.85c23.37,2.36,25.88,10.51,41.48,24.1c17.68,15.41,28.4,6.96,42.76-6.99"/>
				<path class="st47" d="M-67.28,69.77c23.56,3.63,25.12,10.01,41.07,24.36c17.46,15.71,28.76,7.51,43.11-7.11"/>
				<path class="st47" d="M-67.15,69.7c23.54,3.89,25.11,10.21,41.16,24.54c17.56,15.67,28.46,7.11,42.97-7.17"/>
				<path class="st47" d="M-67.02,69.63c23.53,4.15,25.09,10.41,41.26,24.72c17.66,15.63,28.17,6.7,42.83-7.22"/>
				<path class="st47" d="M-66.88,69.56c23.51,4.4,25.08,10.6,41.36,24.88c17.78,15.6,27.87,6.26,42.71-7.28"/>
				<path class="st47" d="M-66.75,69.49c23.5,4.65,25.07,10.78,41.47,25.05c17.91,15.58,27.57,5.8,42.58-7.35"/>
				<path class="st47" d="M-66.62,69.43c23.49,4.89,25.06,10.96,41.58,25.2c18.05,15.56,27.26,5.32,42.47-7.42"/>
				<path class="st47" d="M-66.49,69.37c23.49,5.12,25.05,11.14,41.7,25.36c18.21,15.55,26.95,4.82,42.36-7.49"/>
				<path class="st47" d="M-66.35,69.31c23.48,5.35,25.05,11.32,41.82,25.5c18.37,15.54,26.65,4.3,42.25-7.57"/>
				<path class="st47" d="M-66.22,69.25c23.48,5.57,25.04,11.49,41.94,25.65c18.55,15.53,26.34,3.76,42.15-7.65"/>
				<path class="st47" d="M-66.08,69.19c23.47,5.78,25.04,11.67,42.07,25.79c18.73,15.53,26.04,3.2,42.06-7.74"/>
				<path class="st47" d="M-65.95,69.14c23.47,5.99,25.04,11.84,42.2,25.92C-4.81,110.59,2,97.67,18.23,87.23"/>
				<path class="st47" d="M-65.81,69.08c23.47,6.19,25.04,12.01,42.34,26.05c19.13,15.53,25.45,2.02,41.89-7.92"/>
				<path class="st47" d="M-65.67,69.03c23.47,6.39,25.05,12.18,42.48,26.17c19.34,15.52,25.17,1.4,41.82-8.02"/>
				<path class="st47" d="M-65.53,68.98c23.47,6.58,25.05,12.34,42.63,26.29c19.55,15.52,24.89,0.77,41.75-8.11"/>
				<path class="st47" d="M-65.39,68.94c23.46,6.76,25.06,12.51,42.78,26.41c19.77,15.51,24.63,0.12,41.69-8.22"/>
				<path class="st47" d="M-65.24,68.89c23.46,6.93,25.07,12.69,42.93,26.52c19.99,15.49,24.39-0.55,41.63-8.32"/>
				<path class="st47" d="M-65.1,68.84c23.45,7.1,25.09,12.86,43.08,26.63c20.21,15.47,24.16-1.22,41.58-8.43"/>
				<path class="st47" d="M-64.95,68.8c23.44,7.27,25.11,13.03,43.24,26.73C-1.3,110.97,2.24,93.63,19.82,87"/>
				<path class="st47" d="M-64.81,68.76c9.56,2.01,18.54,5.42,26.95,10.25c5.69,5.32,11.17,10.84,16.44,16.58
					c20.63,15.39,23.78-2.6,41.5-8.65"/>
				<path class="st47" d="M-64.66,68.72c9.48,2.13,18.44,5.54,26.88,10.22c5.79,5.34,11.34,10.91,16.67,16.71
					c20.83,15.33,23.62-3.29,41.46-8.76"/>
				<path class="st47" d="M-64.5,68.68c9.4,2.26,18.33,5.65,26.82,10.19c5.88,5.36,11.51,10.97,16.9,16.83
					c21.01,15.25,23.5-3.99,41.44-8.88"/>
				<path class="st47" d="M-64.35,68.64c9.32,2.38,18.23,5.77,26.75,10.15c5.98,5.38,11.69,11.03,17.14,16.96
					c21.19,15.16,23.41-4.68,41.42-8.99"/>
				<path class="st47" d="M-64.19,68.61c9.23,2.51,18.13,5.88,26.68,10.1c6.07,5.4,11.86,11.1,17.37,17.08
					C1.2,110.85,3.2,90.43,21.26,86.68"/>
				<path class="st47" d="M-64.04,68.57c9.15,2.63,18.02,5.99,26.61,10.05c6.17,5.43,12.04,11.17,17.61,17.21
					C1.66,110.76,3.5,89.8,21.58,86.6"/>
				<path class="st47" d="M-63.88,68.54c9.07,2.76,17.92,6.09,26.54,10c6.26,5.45,12.21,11.23,17.85,17.34
					c21.6,14.77,23.32-6.7,41.4-9.36"/>
				<path class="st47" d="M-63.72,68.51c8.99,2.89,17.81,6.2,26.48,9.94c6.36,5.48,12.38,11.3,18.09,17.47
					c21.7,14.61,23.36-7.35,41.41-9.48"/>
				<path class="st47" d="M-63.55,68.48c8.91,3.02,17.71,6.31,26.41,9.87c6.45,5.5,12.56,11.37,18.33,17.6
					c21.77,14.42,23.43-7.97,41.42-9.6"/>
				<path class="st47" d="M-63.38,68.46c8.82,3.15,17.6,6.41,26.34,9.8c6.55,5.53,12.74,11.44,18.57,17.73
					c21.83,14.22,23.53-8.57,41.44-9.72"/>
				<path class="st47" d="M-63.22,68.43c8.74,3.27,17.5,6.52,26.27,9.73c6.64,5.56,12.91,11.51,18.81,17.86
					c21.86,14,23.65-9.15,41.47-9.85"/>
				<path class="st47" d="M-63.05,68.41c8.67,3.4,17.4,6.62,26.21,9.65c6.73,5.58,13.08,11.58,19.05,17.98
					c21.87,13.77,23.8-9.7,41.5-9.97"/>
				<path class="st47" d="M-62.87,68.39c8.59,3.53,17.31,6.73,26.15,9.58c6.82,5.6,13.25,11.64,19.28,18.11
					C4.42,109.59,6.53,85.85,24.1,85.97"/>
				<path class="st47" d="M-62.7,68.37c8.52,3.66,17.22,6.83,26.09,9.5c6.91,5.63,13.42,11.7,19.52,18.22
					C4.74,109.35,7.07,85.38,24.5,85.87"/>
				<path class="st47" d="M-62.52,68.35c8.45,3.79,17.13,6.93,26.04,9.42c7,5.65,13.58,11.76,19.74,18.33
					C5.06,109.1,7.62,84.93,24.91,85.77"/>
				<path class="st47" d="M-62.34,68.33c8.39,3.92,17.05,7.03,25.98,9.34c7.09,5.67,13.75,11.82,19.97,18.44
					C5.36,108.84,8.18,84.51,25.33,85.66"/>
				<path class="st47" d="M-62.15,68.32c8.33,4.05,16.97,7.14,25.94,9.26c7.17,5.69,13.9,11.87,20.19,18.55
					C5.65,108.58,8.76,84.12,25.75,85.55"/>
				<path class="st47" d="M-61.97,68.31c8.27,4.17,16.9,7.24,25.89,9.18c7.26,5.71,14.06,11.92,20.41,18.65
					c21.6,12.17,25-12.39,41.86-10.7"/>
				<path class="st47" d="M-61.78,68.3c8.21,4.3,16.83,7.33,25.85,9.1c7.34,5.73,14.21,11.97,20.62,18.74
					C6.22,108.03,9.91,83.4,26.64,85.33"/>
				<path class="st47" d="M-61.59,68.29c8.16,4.42,16.77,7.43,25.81,9.02c7.42,5.74,14.36,12.02,20.84,18.83
					c21.44,11.61,25.44-13.07,42.03-10.93"/>
				<path class="st47" d="M-61.39,68.29c8.12,4.54,16.71,7.52,25.77,8.94c7.49,5.76,14.51,12.06,21.04,18.91
					C6.77,107.48,11.07,82.76,27.55,85.1"/>
				<path class="st47" d="M-61.19,68.28c8.07,4.66,16.65,7.61,25.74,8.86c7.57,5.77,14.65,12.11,21.25,18.99
					C7.05,107.2,11.64,82.48,28.03,84.98"/>
				<path class="st47" d="M-60.99,68.28c8.04,4.77,16.6,7.7,25.7,8.78c7.65,5.79,14.8,12.15,21.45,19.07
					c21.16,10.79,26.06-13.92,42.35-11.27"/>
				<path class="st47" d="M-60.79,68.29c8,4.88,16.56,7.78,25.68,8.7c7.72,5.8,14.94,12.19,21.65,19.15
					C7.6,106.65,12.79,81.96,29,84.75"/>
				<path class="st47" d="M-60.59,68.29c7.97,4.99,16.52,7.86,25.65,8.61c7.79,5.82,15.07,12.23,21.85,19.22
					c20.97,10.25,26.44-14.4,42.59-11.5"/>
				<path class="st47" d="M-60.38,68.3c7.94,5.09,16.48,7.93,25.63,8.53c7.86,5.83,15.21,12.26,22.04,19.3
					C8.17,106.11,13.91,81.51,30,84.51"/>
				<path class="st47" d="M-60.17,68.31c7.92,5.19,16.45,8,25.61,8.45c7.93,5.85,15.35,12.3,22.23,19.37
					c20.78,9.72,26.79-14.82,42.85-11.73"/>
				<path class="st47" d="M-59.95,68.33c7.9,5.28,16.42,8.06,25.59,8.36c8,5.86,15.48,12.34,22.42,19.43
					c20.68,9.46,26.95-15.01,42.98-11.85"/>
				<path class="st47" d="M-59.73,68.34c7.88,5.36,16.4,8.12,25.57,8.28c8.07,5.87,15.61,12.37,22.61,19.5
					c20.58,9.21,27.11-15.18,43.12-11.97"/>
				<path class="st47" d="M-59.51,68.36c7.86,5.44,16.38,8.17,25.56,8.2c8.14,5.89,15.74,12.41,22.8,19.56
					c20.49,8.95,27.26-15.35,43.27-12.09"/>
				<path class="st47" d="M-59.29,68.39c8.87,3.74,19.7,5.94,28.07,10.34c7.89,4.15,12.3,12.67,20.49,16.47
					c20.18,9.38,26.8-14.22,43.39-11.27"/>
				<path class="st47" d="M-59.06,68.42c9.07,3.83,19.64,5.88,28.09,10.27C-23,82.82-18.6,91.42-10.33,95.21
					c20.08,9.19,26.91-14.4,43.52-11.36"/>
				<path class="st47" d="M-58.83,68.45c9.27,3.92,19.57,5.81,28.12,10.19c8.05,4.13,12.44,12.81,20.8,16.57
					c19.97,9,27.02-14.57,43.67-11.44"/>
				<path class="st47" d="M-58.6,68.48c9.47,4,19.51,5.74,28.14,10.11c8.12,4.12,12.52,12.88,20.96,16.62
					c19.87,8.82,27.13-14.73,43.81-11.52"/>
				<path class="st47" d="M-58.37,68.52c9.67,4.08,19.45,5.66,28.17,10.03c8.2,4.11,12.59,12.94,21.11,16.67
					c19.77,8.64,27.23-14.88,43.96-11.6"/>
				<path class="st47" d="M-58.13,68.56c9.87,4.16,19.39,5.58,28.2,9.95c8.27,4.1,12.66,13.01,21.27,16.71
					c19.67,8.47,27.34-15.02,44.11-11.67"/>
				<path class="st47" d="M-57.89,68.61c10.06,4.23,19.33,5.5,28.23,9.87c8.35,4.09,12.72,13.07,21.42,16.76
					c19.57,8.3,27.44-15.15,44.27-11.74"/>
				<path class="st47" d="M-57.64,68.66c10.25,4.3,19.28,5.42,28.27,9.78c8.42,4.09,12.79,13.14,21.57,16.8
					c19.48,8.13,27.55-15.27,44.43-11.81"/>
				<path class="st47" d="M-57.39,68.72c10.43,4.36,19.23,5.33,28.3,9.69c8.49,4.08,12.86,13.2,21.72,16.84
					c19.38,7.96,27.65-15.39,44.6-11.86"/>
				<path class="st47" d="M-57.14,68.78c10.59,4.41,19.19,5.25,28.34,9.61c8.56,4.08,12.92,13.26,21.87,16.88
					c19.29,7.8,27.75-15.49,44.77-11.92"/>
				<path class="st47" d="M-56.89,68.84c10.75,4.45,19.16,5.16,28.38,9.52c8.63,4.08,12.99,13.32,22.01,16.92
					c19.2,7.64,27.86-15.58,44.95-11.96"/>
				<path class="st47" d="M-56.63,68.91c10.89,4.49,19.13,5.07,28.42,9.43c8.7,4.08,13.05,13.38,22.16,16.95
					c19.11,7.49,27.96-15.66,45.12-12"/>
				<path class="st47" d="M-56.37,68.99c11.02,4.51,19.11,4.98,28.46,9.34c8.77,4.09,13.11,13.44,22.3,16.98
					c18.95,7.31,28.52-16.7,45.31-12.04"/>
				<path class="st47" d="M-56.11,69.07c11.13,4.52,19.09,4.88,28.5,9.24c8.84,4.1,13.17,13.49,22.45,17.01
					c18.89,7.17,28.58-16.71,45.49-12.07"/>
				<path class="st47" d="M-55.85,69.16c11.23,4.53,19.09,4.79,28.54,9.15c8.9,4.1,13.23,13.54,22.59,17.04
					c18.83,7.04,28.64-16.71,45.69-12.09"/>
				<path class="st47" d="M-55.58,69.25c11.31,4.52,19.09,4.69,28.59,9.05c8.97,4.12,13.29,13.59,22.73,17.07
					c18.77,6.9,28.7-16.7,45.88-12.1"/>
				<path class="st47" d="M-55.3,69.35c11.37,4.5,19.1,4.6,28.64,8.96c9.03,4.13,13.34,13.64,22.87,17.09
					c18.72,6.77,28.78-16.68,46.08-12.1"/>
				<path class="st47" d="M-55.03,69.45c11.42,4.47,19.12,4.5,28.68,8.86c9.09,4.14,13.4,13.69,23,17.11
					c18.66,6.64,28.85-16.65,46.28-12.1"/>
				<path class="st47" d="M-54.75,69.56c11.46,4.43,19.14,4.4,28.73,8.76c9.15,4.16,13.46,13.73,23.14,17.12
					c18.6,6.52,28.94-16.61,46.49-12.09"/>
				<path class="st47" d="M-54.47,69.68c11.49,4.38,19.18,4.3,28.78,8.66c9.21,4.18,13.51,13.77,23.27,17.14
					c18.54,6.39,29.03-16.56,46.7-12.07"/>
				<path class="st47" d="M-54.19,69.8c10.84,4.24,21.01,4.11,30.66,9.47c7.3,4.05,13.2,14.9,21.29,17.4
					c18.53,5.74,29.83-17.51,47.21-13.21"/>
				<path class="st47" d="M-53.9,69.93c11,4.24,21.01,3.95,30.75,9.39c7.27,4.06,13.22,14.95,21.34,17.4
					c18.49,5.59,29.99-17.48,47.47-13.19"/>
				<path class="st47" d="M-53.62,70.07c11.16,4.24,21,3.78,30.85,9.31c7.25,4.07,13.23,15,21.38,17.4
					c18.46,5.44,30.15-17.44,47.73-13.16"/>
				<path class="st47" d="M-53.32,70.22c11.32,4.22,20.99,3.6,30.95,9.23c7.23,4.09,13.24,15.04,21.43,17.39
					c18.42,5.29,30.31-17.39,47.99-13.12"/>
				<path class="st47" d="M-53.03,70.37c11.49,4.2,20.98,3.42,31.04,9.14c7.21,4.1,13.25,15.09,21.48,17.39
					c18.39,5.16,30.47-17.35,48.26-13.08"/>
				<path class="st47" d="M-52.75,70.51c11.66,4.19,20.97,3.24,31.16,9.07c7.2,4.12,13.26,15.13,21.52,17.39
					c18.35,5.03,30.64-17.3,48.53-13.02"/>
				<path class="st47" d="M-52.47,70.64c11.84,4.17,20.97,3.07,31.28,9.01C-14,83.79-7.93,94.82,0.38,97.04
					c18.33,4.9,30.8-17.25,48.8-12.96"/>
				<path class="st47" d="M-52.19,70.78c12.01,4.16,20.96,2.9,31.41,8.95c7.18,4.16,13.26,15.2,21.62,17.38
					c18.3,4.79,30.97-17.2,49.08-12.89"/>
				<path class="st47" d="M-51.92,70.92c12.19,4.14,20.96,2.74,31.53,8.9C-13.21,84-7.13,95.05,1.28,97.2
					c18.28,4.67,31.13-17.15,49.35-12.81"/>
				<path class="st47" d="M-51.63,71.06c12.37,4.12,20.95,2.57,31.66,8.85c7.17,4.21,13.24,15.26,21.71,17.38
					c18.27,4.57,31.3-17.1,49.63-12.73"/>
				<path class="st47" d="M-51.35,71.2c11,3.59,22.41,2.38,31.79,8.81c6.66,4.56,13.53,15.36,21.76,17.38
					c18.26,4.46,31.46-17.04,49.91-12.63"/>
				<path class="st47" d="M-51.07,71.34c11.2,3.58,22.4,2.21,31.92,8.77C-12.48,84.7-5.64,95.5,2.66,97.48
					c18.26,4.37,31.62-16.99,50.19-12.53"/>
				<path class="st47" d="M-50.78,71.48c11.39,3.57,22.38,2.04,32.05,8.74c6.68,4.62,13.49,15.42,21.86,17.38
					c18.27,4.27,31.78-16.94,50.48-12.42"/>
				<path class="st47" d="M-50.49,71.62c11.58,3.55,22.37,1.88,32.18,8.71C-11.62,84.99-4.85,95.77,3.6,97.7
					c18.29,4.18,31.93-16.88,50.76-12.29"/>
				<path class="st47" d="M-50.21,71.76c11.77,3.53,22.36,1.72,32.32,8.69c6.71,4.7,13.44,15.47,21.96,17.37
					c18.32,4.1,32.08-16.83,51.05-12.16"/>
				<path class="st47" d="M-49.92,71.91c11.95,3.5,22.35,1.57,32.45,8.67c6.73,4.74,13.41,15.49,22.02,17.37
					c18.36,4.01,32.22-16.78,51.34-12.02"/>
				<path class="st47" d="M-49.63,72.05c12.13,3.47,22.35,1.42,32.59,8.66c6.76,4.78,13.38,15.51,22.07,17.37
					c18.41,3.93,32.36-16.73,51.63-11.87"/>
				<path class="st47" d="M-49.35,72.19c12.29,3.43,22.31,1.26,32.68,8.63c6.78,4.82,13.34,15.53,22.12,17.37
					c18.47,3.86,32.49-16.67,51.94-11.7"/>
				<path class="st47" d="M-49.08,72.32c12.44,3.39,22.28,1.11,32.77,8.6C-9.5,85.79-3.02,96.47,5.84,98.28
					C24.38,102.05,38.41,81.62,58,86.72"/>
				<path class="st47" d="M-48.8,72.46c12.58,3.34,22.25,0.96,32.87,8.57C-9.1,85.93-2.7,96.58,6.24,98.36
					c9.56,1.9,21.62-7.27,30.62-9.71c8.29-2.24,12.98-2.9,21.76-1.72"/>
				<path class="st47" d="M-48.52,72.59c12.71,3.27,22.23,0.81,32.96,8.54c6.86,4.94,13.18,15.56,22.21,17.3
					c8.57,1.66,22.26-6.91,30.63-9.72c8.28-2.78,13.26-2.79,21.98-1.57"/>
				<path class="st47" d="M-48.24,72.72c12.84,3.2,22.21,0.67,33.05,8.51C-8.3,86.21-2.07,96.79,7.05,98.5
					c8.44,1.59,22.28-6.98,30.63-9.73c8.36-2.75,13.42-2.69,22.19-1.43"/>
				<path class="st47" d="M-47.97,72.84c12.96,3.12,22.2,0.53,33.15,8.47C-7.9,86.34-1.75,96.88,7.46,98.56
					c8.32,1.52,22.29-7.05,30.63-9.74c8.44-2.72,13.59-2.6,22.41-1.28"/>
				<path class="st47" d="M-47.69,72.97c13.07,3.03,22.2,0.4,33.24,8.44c6.95,5.07,13.02,15.56,22.31,17.2
					c8.19,1.45,22.31-7.12,30.63-9.75c8.53-2.69,13.75-2.51,22.63-1.14"/>
				<path class="st47" d="M-47.41,73.09c13.18,2.94,22.2,0.27,33.33,8.41C-7.08,86.6-1.11,97.05,8.28,98.65
					c8.07,1.38,22.31-7.18,30.63-9.76c8.62-2.67,13.92-2.42,22.86-1"/>
				<path class="st47" d="M-47.13,73.21c11.63,2.71,20.25-0.09,30.21,6.35c10.14,6.55,14.71,15.68,26.4,17.9
					c17.97,3.41,33.04-13.18,52.92-9.39"/>
				<path class="st47" d="M-46.84,73.32c11.7,2.63,20.28-0.23,30.29,6.3C-6.28,86.3-1.92,95.32,9.93,97.46
					c18.26,3.3,32.99-13.2,53.12-9.24"/>
				<path class="st47" d="M-46.56,73.43c11.77,2.54,20.31-0.36,30.38,6.24c10.4,6.82,14.53,15.73,26.55,17.79
					c18.58,3.18,32.94-13.23,53.32-9.08"/>
				<path class="st47" d="M-46.28,73.54c11.84,2.44,20.34-0.49,30.47,6.19C-5.26,86.7-1.4,95.48,10.81,97.45
					c18.91,3.06,32.89-13.25,53.53-8.92"/>
				<path class="st47" d="M-46,73.65c11.9,2.34,20.38-0.62,30.56,6.14c10.72,7.12,14.29,15.75,26.68,17.64
					c19.26,2.93,32.83-13.28,53.74-8.76"/>
				<path class="st47" d="M-45.71,73.76c11.95,2.23,20.42-0.74,30.65,6.09C-4.17,87.12-0.9,95.61,11.68,97.4
					c19.61,2.79,32.77-13.32,53.95-8.6"/>
				<path class="st47" d="M-45.43,73.86c12.01,2.11,20.47-0.86,30.74,6.04c11.08,7.44,14.03,15.77,26.82,17.47
					c19.96,2.64,32.71-13.36,54.16-8.44"/>
				<path class="st47" d="M-45.15,73.96c12.05,2,20.52-0.97,30.83,5.99c11.27,7.61,13.89,15.79,26.89,17.38
					c20.32,2.49,32.66-13.41,54.37-8.27"/>
				<path class="st47" d="M-44.86,74.05c12.1,1.87,20.58-1.09,30.92,5.94c11.48,7.79,13.75,15.8,26.96,17.28
					c20.67,2.31,32.61-13.46,54.58-8.1"/>
				<path class="st47" d="M-44.58,74.14c12.14,1.74,20.64-1.19,31.01,5.89C-1.87,88,0.03,95.84,13.47,97.2
					c21.02,2.13,32.56-13.51,54.79-7.94"/>
				<path class="st47" d="M-44.29,74.23c12.18,1.61,20.7-1.29,31.11,5.84c11.92,8.16,13.44,15.82,27.11,17.06
					c21.35,1.94,32.53-13.56,54.99-7.77"/>
				<path class="st47" d="M-44.01,74.31c12.21,1.47,20.77-1.39,31.2,5.79c12.15,8.35,13.28,15.83,27.19,16.95
					c21.67,1.73,32.52-13.62,55.2-7.59"/>
				<path class="st47" d="M-43.72,74.4c12.24,1.33,20.84-1.48,31.3,5.74C-0.03,88.69,0.7,95.99,14.85,96.96
					c21.92,1.51,32.54-13.65,55.37-7.45"/>
				<path class="st47" d="M-43.44,74.47c12.26,1.19,20.91-1.56,31.4,5.7C0.6,88.92,0.92,96.03,15.32,96.87
					c22.1,1.28,32.59-13.66,55.5-7.35"/>
				<path class="st47" d="M-43.15,74.55c12.29,1.04,20.99-1.64,31.49,5.65c12.88,8.95,12.8,15.87,27.44,16.56
					c22.26,1.05,32.65-13.68,55.64-7.24"/>
				<path class="st47" d="M-42.87,74.62c12.3,0.88,21.08-1.71,31.59,5.61C1.86,89.38,1.36,96.11,16.25,96.66
					c22.4,0.82,32.73-13.7,55.77-7.14"/>
				<path class="st47" d="M-42.58,74.69c12.32,0.72,21.17-1.78,31.69,5.57c13.38,9.34,12.48,15.9,27.61,16.29
					c22.51,0.59,32.83-13.72,55.9-7.04"/>
				<path class="st47" d="M-42.29,74.75c12.33,0.56,21.26-1.84,31.79,5.53c13.62,9.53,12.33,15.91,27.7,16.16
					c22.61,0.36,32.95-13.74,56.04-6.95"/>
				<path class="st47" d="M-42.01,74.81c12.33,0.4,21.35-1.89,31.89,5.49C3.74,90.01,2.06,96.22,17.66,96.32
					c22.69,0.14,33.08-13.77,56.17-6.87"/>
				<path class="st47" d="M-41.72,74.86c12.33,0.23,21.45-1.94,31.99,5.46C4.36,90.21,2.3,96.25,18.14,96.19
					c22.75-0.08,33.22-13.8,56.3-6.78"/>
				<path class="st47" d="M-41.44,74.92c12.34,0.06,21.55-1.99,32.09,5.42C4.97,90.4,2.55,96.27,18.61,96.07
					c22.79-0.29,33.38-13.84,56.43-6.71"/>
				<path class="st47" d="M-41.15,74.96c12.34-0.11,21.64-2.04,32.19,5.39C5.57,90.58,2.81,96.3,19.08,95.94
					c22.82-0.5,33.55-13.88,56.55-6.64"/>
				<path class="st47" d="M-40.87,75.01c12.44-0.07,21.63-2.16,32.3,5.36C6.16,90.75,3.08,96.31,19.56,95.81
					c22.84-0.7,33.73-13.92,56.68-6.57"/>
				<path class="st47" d="M-40.58,75.05c12.37-0.44,21.82-2.14,32.4,5.33C6.74,90.92,3.36,96.32,20.03,95.67
					c22.85-0.9,33.92-13.97,56.8-6.5"/>
				<path class="st47" d="M-40.3,75.08c12.3-0.8,22.01-2.12,32.5,5.31C7.3,91.07,3.64,96.33,20.51,95.53
					c22.85-1.08,34.11-14.03,56.93-6.44"/>
				<path class="st47" d="M-40.01,75.12c12.23-1.15,22.19-2.09,32.6,5.28C7.86,91.22,3.94,96.32,20.99,95.38
					C43.83,94.12,55.31,81.29,78.04,89"/>
				<path class="st47" d="M-39.73,75.14c12.16-1.5,22.37-2.07,32.71,5.26C8.4,91.36,4.25,96.32,21.47,95.23
					C44.29,93.8,56,81.08,78.64,88.9"/>
				<path class="st47" d="M-39.44,75.17c12.09-1.85,22.55-2.05,32.81,5.25C8.92,91.48,4.58,96.3,21.95,95.08
					c22.8-1.6,34.75-14.23,57.29-6.29"/>
				<path class="st47" d="M-39.16,75.19c12.02-2.19,22.73-2.03,32.92,5.23C9.43,91.6,4.91,96.28,22.43,94.93
					c8.91-0.69,17.55-5.16,26.09-7.28c13.48-3.36,17.14-4.05,31.31,1.04"/>
				<path class="st47" d="M-38.88,75.2c11.95-2.53,22.9-2.01,33.02,5.22C9.92,91.71,5.26,96.24,22.91,94.77
					c8.85-0.74,17.5-5.12,26.01-7.24c13.66-3.4,17.13-4.24,31.51,1.04"/>
				<path class="st47" d="M-38.6,75.22c11.88-2.85,23.07-1.99,33.13,5.22C10.4,91.8,5.63,96.2,23.39,94.6
					c8.8-0.79,17.44-5.09,25.93-7.19c13.81-3.42,17.14-4.37,31.71,1.02"/>
				<path class="st47" d="M-38.31,75.22c11.81-3.18,23.23-1.97,33.23,5.21C10.85,91.88,6,96.15,23.87,94.44
					c8.74-0.84,17.39-5.05,25.85-7.14c13.96-3.43,17.16-4.49,31.9,1.01"/>
				<path class="st47" d="M-38.03,75.23c11.75-3.5,23.38-1.95,33.34,5.21C11.3,91.95,6.39,96.09,24.36,94.27
					c8.68-0.88,17.33-5.02,25.77-7.08c14.1-3.45,17.18-4.61,32.1,0.99"/>
				<path class="st47" d="M-37.75,75.23c11.69-3.81,23.54-1.94,33.44,5.21C11.72,92.01,6.8,96.02,24.84,94.09
					c8.63-0.92,17.28-4.99,25.69-7.03c14.25-3.46,17.19-4.73,32.29,0.97"/>
				<path class="st47" d="M-37.47,75.22c11.63-4.12,23.68-1.92,33.55,5.22c16.05,11.62,11.15,15.5,29.25,13.47
					c8.58-0.96,17.22-4.95,25.6-6.98c14.4-3.48,17.19-4.86,32.48,0.94"/>
				<path class="st47" d="M-37.19,75.21c11.57-4.43,23.83-1.9,33.65,5.23C12.53,92.11,7.65,95.85,25.81,93.74
					c8.53-0.99,17.16-4.92,25.52-6.93c14.55-3.5,17.2-5,32.67,0.91"/>
				<path class="st47" d="M-36.91,75.2c11.52-4.73,23.96-1.88,33.76,5.25C12.92,92.15,8.09,95.76,26.3,93.55
					c8.48-1.03,17.1-4.88,25.44-6.87c14.7-3.51,17.2-5.13,32.86,0.88"/>
				<path class="st47" d="M-36.64,75.18c11.48-5.03,24.1-1.87,33.86,5.27C13.3,92.18,8.54,95.67,26.79,93.37
					c8.43-1.06,17.04-4.84,25.35-6.82c14.86-3.53,17.2-5.27,33.05,0.84"/>
				<path class="st47" d="M-36.36,75.16c11.43-5.33,24.22-1.85,33.97,5.29C13.67,92.22,8.99,95.56,27.28,93.17
					c8.38-1.1,16.97-4.8,25.27-6.76c15.01-3.55,17.19-5.41,33.24,0.81"/>
				<path class="st47" d="M-36.08,75.13c11.39-5.62,24.35-1.83,34.08,5.32c16.05,11.8,11.47,15.01,29.77,12.53
					c8.34-1.13,16.91-4.76,25.19-6.7c15.17-3.57,17.19-5.56,33.43,0.76"/>
				<path class="st47" d="M-35.81,75.1c11.36-5.91,24.47-1.82,34.18,5.35C14.4,92.27,9.93,95.34,28.26,92.78
					c8.29-1.16,16.85-4.72,25.1-6.65c15.33-3.59,17.18-5.71,33.61,0.72"/>
				<path class="st47" d="M-35.53,75.07c11.33-6.19,24.58-1.8,34.29,5.38c15.99,11.84,11.66,14.77,29.99,12.13
					c8.25-1.19,16.78-4.67,25.02-6.59c15.49-3.6,17.17-5.86,33.79,0.67"/>
				<path class="st47" d="M-35.26,75.03c11.3-6.48,24.69-1.78,34.39,5.42C15.09,92.31,10.91,95.1,29.24,92.38
					c8.21-1.22,16.72-4.63,24.93-6.53c15.65-3.62,17.15-6.01,33.97,0.62"/>
				<path class="st47" d="M-34.99,74.99c11.3-6.77,24.82-1.74,34.53,5.5c15.87,11.85,11.91,14.47,30.19,11.68
					c8.17-1.25,16.65-4.58,24.85-6.47c15.81-3.64,17.14-6.16,34.15,0.57"/>
				<path class="st47" d="M-34.72,74.94c11.32-7.07,24.97-1.69,34.69,5.61c15.74,11.83,12.05,14.26,30.25,11.4
					c8.13-1.28,16.59-4.53,24.76-6.4c15.97-3.66,17.12-6.32,34.33,0.51"/>
				<path class="st47" d="M-34.45,74.89c11.34-7.37,25.12-1.64,34.85,5.72c15.61,11.8,12.2,14.04,30.31,11.12
					c8.1-1.31,16.52-4.48,24.68-6.34c16.14-3.68,17.1-6.47,34.51,0.46"/>
				<path class="st47" d="M-34.18,74.84c11.36-7.66,25.26-1.58,35.02,5.84C16.31,92.45,13.2,94.5,31.21,91.52
					c8.06-1.33,16.46-4.43,24.59-6.27c16.3-3.7,17.09-6.63,34.68,0.4"/>
				<path class="st47" d="M-33.91,74.78c11.4-7.96,25.41-1.52,35.18,5.97C16.59,92.48,13.8,94.33,31.71,91.3
					c8.03-1.36,16.39-4.37,24.51-6.21c16.46-3.72,17.07-6.79,34.86,0.34"/>
				<path class="st47" d="M-33.64,74.72c9.81-6.65,23.23-2.96,32.33,3.34c16.49,11.41,13.82,17.42,33.97,12.62
					c8.69-2.07,17.49-3.76,26.09-5.79c16.17-3.81,15.36-7.14,32.9,0.32"/>
				<path class="st47" d="M-33.38,74.65c9.76-6.89,23.36-2.94,32.45,3.37c16.73,11.63,13.8,17.19,34.16,12.31
					c8.64-2.07,17.41-3.59,25.94-5.6c16.31-3.85,15.35-7.29,33.06,0.25"/>
				<path class="st47" d="M-33.11,74.58c9.72-7.12,23.48-2.93,32.57,3.42c16.96,11.83,13.79,16.95,34.34,12
					c8.59-2.07,17.33-3.42,25.8-5.42c16.44-3.89,15.35-7.43,33.21,0.18"/>
				<path class="st47" d="M-32.85,74.5c9.68-7.34,23.6-2.91,32.7,3.46c17.17,12.03,13.81,16.7,34.52,11.69
					c8.53-2.06,17.26-3.26,25.66-5.25c16.58-3.93,15.35-7.58,33.36,0.11"/>
				<path class="st47" d="M-32.59,74.42c9.65-7.57,23.72-2.9,32.82,3.51c17.36,12.22,13.84,16.43,34.7,11.38
					c8.47-2.05,17.19-3.1,25.52-5.08c16.71-3.98,15.35-7.72,33.52,0.04"/>
				<path class="st47" d="M-32.33,74.34c9.63-7.79,23.83-2.88,32.94,3.56C18.14,90.3,14.51,94.06,35.49,88.98
					c8.4-2.03,17.13-2.94,25.38-4.91c16.84-4.02,15.35-7.86,33.67-0.03"/>
				<path class="st47" d="M-32.07,74.26c9.61-8,23.94-2.86,33.07,3.62c17.68,12.56,13.97,15.87,35.06,10.77
					c8.33-2.01,17.07-2.79,25.24-4.74c16.97-4.06,15.35-8,33.82-0.11"/>
				<path class="st47" d="M-31.81,74.17c9.6-8.22,24.04-2.84,33.19,3.69C19.2,90.57,15.43,93.42,36.61,88.32
					c8.25-1.99,17.01-2.64,25.11-4.58c17.1-4.11,15.35-8.14,33.96-0.18"/>
				<path class="st47" d="M-31.56,74.07c9.6-8.43,24.14-2.82,33.31,3.76C19.71,90.7,15.92,93.09,37.17,87.99
					c8.17-1.96,16.96-2.5,24.98-4.43c17.22-4.16,15.35-8.28,34.11-0.26"/>
				<path class="st47" d="M-31.3,73.97c9.61-8.64,24.24-2.8,33.44,3.83c18.07,13.02,14.27,14.95,35.59,9.85
					c8.09-1.93,16.91-2.36,24.85-4.28c17.35-4.2,15.35-8.42,34.25-0.33"/>
				<path class="st47" d="M-31.05,73.87c9.63-8.85,24.34-2.77,33.56,3.91c18.17,13.17,14.41,14.62,35.77,9.55
					c8.01-1.9,16.86-2.22,24.72-4.13c17.47-4.25,15.35-8.56,34.39-0.4"/>
				<path class="st47" d="M-30.8,73.77c9.67-9.07,24.47-2.72,33.73,4.04c18.2,13.3,14.57,14.23,35.89,9.2
					c7.93-1.87,16.82-2.09,24.59-3.99c17.59-4.3,15.35-8.7,34.53-0.48"/>
				<path class="st47" d="M-30.55,73.66c9.73-9.29,24.62-2.66,33.92,4.2c18.19,13.41,14.75,13.81,36.01,8.83
					c7.85-1.84,16.78-1.97,24.47-3.85C81.56,78.49,79.2,74,98.52,82.28"/>
				<path class="st47" d="M-30.3,73.55c9.8-9.51,24.77-2.59,34.11,4.36C8.4,85.46,14.89,90.18,23.3,92.06
					c5.54-1.9,11.08-3.79,16.62-5.69c7.77-1.8,16.74-1.84,24.35-3.72c17.82-4.39,15.34-8.97,34.81-0.63"/>
				<path class="st47" d="M-30.06,73.43c9.87-9.72,24.92-2.52,34.3,4.52c4.57,7.55,11.07,12.18,19.5,13.92
					c5.57-1.94,11.15-3.88,16.72-5.82c7.69-1.77,16.7-1.73,24.24-3.59c17.94-4.44,15.34-9.11,34.94-0.7"/>
				<path class="st47" d="M-29.82,73.31c9.96-9.92,25.08-2.44,34.5,4.7c4.56,7.54,11.06,12.1,19.51,13.67
					c5.6-1.98,11.21-3.97,16.81-5.95c7.61-1.73,16.66-1.61,24.12-3.47c18.05-4.49,15.33-9.24,35.07-0.77"/>
				<path class="st47" d="M-29.58,73.19c10.06-10.11,25.23-2.36,34.7,4.88c17.67,13.51,15.84,12.59,36.42,7.35
					c7.73-1.97,16.44-1.46,24.01-3.35c18.16-4.54,15.32-9.37,35.2-0.85"/>
				<path class="st47" d="M-29.34,73.07c10.17-10.3,25.38-2.28,34.9,5.06c17.59,13.56,16.09,12.16,36.52,6.98
					c7.65-1.94,16.4-1.35,23.9-3.24c18.27-4.59,15.31-9.51,35.33-0.92"/>
				<path class="st47" d="M-29.1,72.94C-18.82,62.45-3.57,70.75,6,78.18C23.5,91.79,22.35,89.9,42.61,84.8
					c7.58-1.91,16.36-1.25,23.8-3.13c18.38-4.64,15.29-9.64,35.45-0.99"/>
				<path class="st47" d="M-28.86,72.8c10.41-10.66,25.68-2.09,35.3,5.44c17.41,13.64,16.63,11.28,36.71,6.25
					c7.52-1.88,16.32-1.15,23.7-3.02c18.49-4.69,15.28-9.77,35.58-1.06"/>
				<path class="st47" d="M-28.63,72.67c10.55-10.82,25.83-2,35.51,5.64c17.31,13.66,16.91,10.83,36.8,5.88
					c7.45-1.85,16.29-1.06,23.6-2.92c18.59-4.74,15.25-9.9,35.7-1.13"/>
				<path class="st47" d="M-28.4,72.53c10.7-10.98,25.98-1.89,35.71,5.85c17.2,13.67,17.2,10.37,36.88,5.51
					c7.39-1.82,16.25-0.97,23.5-2.83c18.7-4.8,15.23-10.03,35.82-1.19"/>
				<path class="st47" d="M-28.17,72.39c10.85-11.13,26.13-1.79,35.92,6.05c17.09,13.67,17.49,9.92,36.97,5.15
					c7.33-1.8,16.21-0.89,23.4-2.74c18.8-4.85,15.2-10.16,35.93-1.26"/>
				<path class="st47" d="M-27.95,72.25c11.02-11.27,26.27-1.68,36.13,6.26c16.96,13.66,17.8,9.47,37.05,4.79
					c7.27-1.77,16.17-0.81,23.31-2.66c18.91-4.9,15.16-10.29,36.05-1.32"/>
				<path class="st47" d="M-27.72,72.1c11.2-11.41,26.42-1.56,36.35,6.48c16.84,13.63,18.11,9.01,37.13,4.43
					c7.22-1.74,16.13-0.73,23.23-2.58c19.01-4.95,15.12-10.42,36.16-1.38"/>
				<path class="st47" d="M-27.5,71.95c14.01-8.09,24.61-3.03,36.56,6.7c16.7,13.59,18.42,8.55,37.21,4.07
					c7.18-1.71,16.09-0.66,23.14-2.5c19.12-5,15.08-10.54,36.27-1.44"/>
				<path class="st47" d="M-27.28,71.8c14.24-8.15,24.73-2.93,36.77,6.92c16.56,13.54,18.74,8.1,37.28,3.71
					c7.13-1.69,16.05-0.59,23.06-2.44c19.22-5.05,15.03-10.67,36.38-1.5"/>
				<path class="st47" d="M-27.07,71.65c12.58-13.58,28.05,1.64,38.62,8.8c14.27,9.67,16.98,6.85,34.68,2.69
					c7.85-1.84,18.93-1.06,26.15-3.81c15.31-5.82,16.18-8.95,34.36-1.11"/>
				<path class="st47" d="M-26.85,71.49c12.73-13.65,28.1,1.74,38.78,8.92c14.32,9.63,17.14,6.56,34.82,2.42
					c7.82-1.83,18.92-0.97,26.09-3.75c15.37-5.97,16.08-9.06,34.45-1.14"/>
				<path class="st47" d="M-26.64,71.32c12.9-13.7,28.13,1.85,38.93,9.05c14.37,9.59,17.3,6.27,34.94,2.15
					c7.8-1.82,18.91-0.88,26.03-3.71c15.44-6.13,15.96-9.2,34.54-1.16"/>
				<path class="st47" d="M-26.42,71.15c13.08-13.73,28.17,1.97,39.08,9.2c14.41,9.54,17.47,5.98,35.07,1.88
					c7.78-1.81,18.89-0.79,25.98-3.66c15.5-6.28,15.87-9.32,34.62-1.18"/>
				<path class="st47" d="M-26.2,70.97c13.27-13.75,28.19,2.1,39.23,9.35c14.45,9.49,17.64,5.68,35.19,1.61
					c7.78-1.8,18.85-0.71,25.94-3.63c3.15-2.39,6.31-4.79,9.46-7.18c9.15-1.5,17.56,0.49,25.24,5.99"/>
				<path class="st47" d="M-25.97,70.79c13.48-13.76,28.21,2.24,39.38,9.51c14.5,9.43,17.81,5.37,35.3,1.34
					c7.78-1.79,18.81-0.64,25.9-3.6c3.16-2.44,6.31-4.88,9.47-7.33c9.18-1.39,17.62,0.65,25.31,6.13"/>
				<path class="st47" d="M-25.75,70.6c13.7-13.76,28.22,2.39,39.53,9.67c14.65,9.44,17.88,4.76,35.41,1.08
					c7.69-1.61,18.9-0.62,25.86-3.58c3.16-2.49,6.32-4.98,9.48-7.47c9.21-1.29,17.67,0.8,25.37,6.26"/>
				<path class="st47" d="M-25.53,70.41c13.94-13.74,28.23,2.54,39.68,9.84c14.69,9.37,18.06,4.44,35.52,0.81
					c7.7-1.6,18.85-0.55,25.82-3.56c3.16-2.53,6.32-5.07,9.48-7.6c9.23-1.19,17.71,0.95,25.44,6.4"/>
				<path class="st47" d="M-25.3,70.22c17.69-9.73,25.09,0.71,39.82,10.01c14.72,9.29,18.24,4.13,35.63,0.54
					c7.72-1.59,18.8-0.48,25.79-3.55c3.16-2.58,6.33-5.16,9.49-7.73c9.26-1.09,17.76,1.09,25.5,6.53"/>
				<path class="st47" d="M-25.08,70.02c17.95-9.65,25.05,0.89,39.97,10.19c14.75,9.2,18.43,3.81,35.73,0.28
					c7.75-1.58,18.75-0.42,25.77-3.55c3.17-2.62,6.33-5.24,9.5-7.86c9.28-0.99,17.8,1.23,25.55,6.66"/>
				<path class="st47" d="M-24.85,69.82c18.22-9.57,25.01,1.07,40.11,10.37c14.77,9.1,18.62,3.5,35.83,0.02
					c7.77-1.57,18.69-0.36,25.74-3.55c3.17-2.66,6.34-5.32,9.51-7.98c9.31-0.89,17.84,1.37,25.6,6.79"/>
				<path class="st47" d="M-24.62,69.62c18.49-9.46,24.97,1.25,40.26,10.56c14.79,9,18.81,3.18,35.92-0.24
					c7.81-1.56,18.63-0.3,25.73-3.56c3.17-2.7,6.35-5.4,9.52-8.1c9.33-0.8,17.88,1.51,25.65,6.92"/>
				<path class="st47" d="M-24.39,69.41C-5.61,60.06,0.52,70.86,16,80.16c14.8,8.89,19,2.87,36.01-0.5
					c7.85-1.56,18.57-0.24,25.71-3.57c3.18-2.74,6.35-5.47,9.53-8.21c9.35-0.71,17.92,1.64,25.7,7.05"/>
				<path class="st47" d="M-24.16,69.2c19.07-9.22,24.85,1.66,40.54,10.95c14.81,8.78,19.2,2.55,36.1-0.76
					c7.89-1.55,18.5-0.19,25.7-3.59c3.18-2.77,6.36-5.54,9.54-8.31c9.37-0.62,17.95,1.77,25.75,7.18"/>
				<path class="st47" d="M-23.93,68.99c19.37-9.07,24.79,1.87,40.68,11.15c14.82,8.65,19.41,2.24,36.18-1.02
					c7.93-1.54,18.44-0.14,25.69-3.62c3.18-2.8,6.37-5.6,9.55-8.41c9.39-0.54,17.98,1.9,25.79,7.31"/>
				<path class="st47" d="M-23.7,68.78c19.67-8.9,24.71,2.09,40.81,11.35c14.82,8.52,19.61,1.93,36.26-1.27
					c7.99-1.54,18.37-0.09,25.69-3.65c3.19-2.83,6.37-5.67,9.56-8.5c9.4-0.45,18.01,2.03,25.82,7.44"/>
				<path class="st47" d="M-23.46,68.56c19.99-8.72,24.64,2.32,40.95,11.56c14.81,8.39,19.82,1.62,36.33-1.53
					c8.04-1.53,18.3-0.05,25.69-3.69c3.19-2.86,6.38-5.72,9.57-8.58c9.42-0.37,18.04,2.15,25.86,7.57"/>
				<path class="st47" d="M-23.23,68.34c20.3-8.52,24.55,2.56,41.08,11.77c14.8,8.25,20.03,1.31,36.4-1.78
					c8.1-1.53,18.23-0.01,25.7-3.74c3.19-2.89,6.39-5.78,9.58-8.66c9.43-0.29,18.06,2.27,25.89,7.7"/>
				<path class="st47" d="M-22.99,68.12c20.62-8.3,24.46,2.81,41.21,11.99c14.78,8.1,20.25,1,36.47-2.02
					c8.17-1.52,18.16,0.03,25.71-3.79c3.2-2.91,6.39-5.82,9.59-8.74c9.45-0.21,18.09,2.39,25.92,7.82"/>
				<path class="st47" d="M-22.75,67.89c20.94-8.06,24.36,3.06,41.34,12.2c14.75,7.94,20.46,0.7,36.54-2.27
					c8.23-1.52,18.09,0.06,25.72-3.85c3.2-2.93,6.4-5.87,9.6-8.8c9.46-0.14,18.11,2.51,25.94,7.95"/>
				<path class="st47" d="M-22.51,67.67c21.26-7.8,24.27,3.33,41.47,12.42c14.72,7.78,20.68,0.4,36.6-2.51
					c8.31-1.52,18.01,0.1,25.74-3.92c3.2-2.95,6.41-5.91,9.61-8.86c9.47-0.06,18.13,2.63,25.96,8.07"/>
				<path class="st47" d="M-22.27,67.44c21.59-7.52,24.16,3.6,41.59,12.64c14.68,7.62,20.91,0.1,36.66-2.75
					c8.39-1.52,17.94,0.12,25.76-3.99c3.21-2.97,6.42-5.94,9.62-8.92c9.48,0.01,18.14,2.74,25.98,8.2"/>
				<path class="st47" d="M-22.03,67.21c21.9-7.22,24.06,3.88,41.72,12.86c14.63,7.45,21.13-0.19,36.71-2.98
					c8.47-1.52,17.87,0.15,25.79-4.07c3.21-2.99,6.42-5.98,9.63-8.96c9.49,0.08,18.16,2.85,26,8.32"/>
				<path class="st47" d="M-21.78,66.98c7.93-5.35,16.12-5.46,24.56-0.34c7.38,3.7,13.64,8.76,18.77,15.17
					c13.45,4.39,22.34-3.17,36.35-5.28c5.59-0.84,12.59,0.31,17.95-1.17c7.01-2.46,13-6.48,17.95-12.07
					c8.87,0.95,17.04,3.9,24.5,8.85"/>
				<path class="st47" d="M-21.54,66.74c8.03-5.17,16.27-5.24,24.72-0.21c7.26,3.8,13.48,8.86,18.65,15.17
					c13.44,4.33,22.5-3.35,36.47-5.38c5.59-0.81,12.59,0.31,17.95-1.17c6.97-2.6,12.98-6.67,18.02-12.2
					c8.87,1,17.04,3.98,24.49,8.95"/>
				<path class="st47" d="M-21.29,66.51c8.13-4.98,16.43-5.01,24.89-0.07c7.14,3.9,13.32,8.96,18.52,15.17
					c13.42,4.28,22.66-3.53,36.58-5.48c5.59-0.78,12.59,0.31,17.95-1.18c6.93-2.76,12.96-6.87,18.08-12.33
					c8.87,1.04,17.03,4.06,24.48,9.04"/>
				<path class="st47" d="M-21.04,66.27c8.23-4.78,16.58-4.76,25.05,0.06c7.03,4,13.16,9.06,18.4,15.17
					c13.41,4.23,22.82-3.71,36.69-5.58c5.59-0.75,12.59,0.3,17.95-1.19c6.88-2.91,12.93-7.06,18.15-12.45
					c8.87,1.09,17.03,4.13,24.47,9.14"/>
				<path class="st47" d="M-20.79,66.04c8.32-4.57,16.73-4.5,25.21,0.2c6.91,4.1,13,9.16,18.28,15.17
					c13.4,4.19,22.96-3.89,36.8-5.68c5.59-0.72,12.59,0.3,17.96-1.2c6.83-3.07,12.9-7.26,18.21-12.56
					c8.87,1.13,17.02,4.21,24.45,9.23"/>
				<path class="st47" d="M-20.54,65.8c8.41-4.35,16.87-4.23,25.37,0.35c6.79,4.2,12.84,9.26,18.16,15.18
					c13.39,4.15,23.11-4.07,36.9-5.77c5.59-0.69,12.6,0.29,17.98-1.22c6.77-3.23,12.86-7.46,18.28-12.67
					c8.87,1.17,17.02,4.28,24.44,9.33"/>
				<path class="st47" d="M-20.29,65.56c8.5-4.12,17.01-3.96,25.53,0.49c6.67,4.3,12.69,9.36,18.05,15.18
					c13.38,4.11,23.25-4.24,36.99-5.87c5.6-0.66,12.61,0.28,18-1.25c6.71-3.4,12.82-7.65,18.34-12.78
					c8.87,1.21,17.01,4.35,24.41,9.42"/>
				<path class="st47" d="M-20.03,65.32c8.58-3.9,17.14-3.69,25.68,0.64c6.55,4.4,12.53,9.47,17.93,15.19
					c13.37,4.08,23.38-4.42,37.08-5.97c5.6-0.63,12.63,0.27,18.02-1.27c6.64-3.56,12.78-7.86,18.4-12.88
					c8.87,1.25,17,4.43,24.39,9.51"/>
				<path class="st47" d="M-19.77,65.08c8.66-3.68,17.27-3.42,25.83,0.79c6.43,4.5,12.37,9.57,17.82,15.19
					c13.36,4.04,23.51-4.59,37.16-6.06c5.6-0.6,12.64,0.25,18.05-1.3c6.57-3.73,12.72-8.06,18.46-12.97
					c8.86,1.29,16.98,4.5,24.36,9.61"/>
				<path class="st47" d="M-19.52,64.84c8.74-3.47,17.39-3.16,25.98,0.94c6.31,4.6,12.21,9.67,17.71,15.2
					c12.97,3.9,24.04-4.33,37.23-6.15c5.71-0.79,12.55,0.27,18.09-1.34c6.49-3.91,12.66-8.26,18.53-13.06
					c8.86,1.33,16.97,4.57,24.33,9.7"/>
				<path class="st47" d="M-19.25,64.6c8.81-3.26,17.51-2.89,26.12,1.09c6.19,4.7,12.06,9.77,17.61,15.21
					c12.9,3.85,24.22-4.45,37.3-6.25c5.52-0.76,12.86,0.49,18.13-1.37c6.4-4.09,12.6-8.47,18.59-13.15
					c8.85,1.37,16.95,4.63,24.3,9.79"/>
				<path class="st47" d="M-18.99,64.36c8.87-3.05,17.63-2.63,26.26,1.25c6.07,4.8,11.9,9.87,17.5,15.21
					c12.83,3.8,24.39-4.57,37.36-6.34c5.53-0.75,12.91,0.5,18.17-1.41c6.31-4.27,12.53-8.68,18.65-13.23
					c8.84,1.41,16.93,4.7,24.26,9.88"/>
				<path class="st47" d="M-18.73,64.12c8.94-2.84,17.74-2.38,26.4,1.41c5.95,4.9,11.75,9.98,17.4,15.22
					c12.75,3.76,24.57-4.69,37.41-6.43c5.53-0.75,12.95,0.51,18.22-1.46c6.22-4.46,12.45-8.89,18.71-13.3
					c8.84,1.44,16.91,4.77,24.22,9.97"/>
				<path class="st47" d="M-18.46,63.88c9-2.65,17.85-2.12,26.53,1.57c5.83,5.01,11.6,10.08,17.3,15.22
					c12.66,3.71,24.74-4.81,37.46-6.52c5.54-0.75,12.99,0.52,18.28-1.5c6.12-4.65,12.37-9.11,18.76-13.37
					c8.83,1.48,16.89,4.83,24.18,10.06"/>
				<path class="st47" d="M-18.19,63.64c9.06-2.45,17.95-1.87,26.66,1.74c5.71,5.11,11.45,10.18,17.21,15.23
					c12.57,3.66,24.92-4.92,37.5-6.61c5.55-0.74,13.04,0.52,18.34-1.56c6.01-4.85,12.29-9.33,18.82-13.44
					c8.82,1.52,16.86,4.9,24.13,10.15"/>
				<path class="st47" d="M-17.92,63.41c9.12-2.26,18.04-1.63,26.79,1.9c5.59,5.21,11.3,10.29,17.12,15.23
					c12.46,3.61,25.1-5.04,37.54-6.7c5.56-0.74,13.09,0.53,18.4-1.61c5.9-5.05,12.19-9.55,18.88-13.5
					c8.81,1.55,16.84,4.97,24.09,10.24"/>
				<path class="st47" d="M-17.65,63.17c9.17-2.07,18.14-1.38,26.91,2.07c5.47,5.31,11.14,10.39,17.02,15.23
					c12.35,3.56,25.28-5.14,37.57-6.78c5.58-0.74,13.13,0.53,18.47-1.67c5.78-5.26,12.1-9.77,18.94-13.55
					c8.8,1.59,16.81,5.03,24.04,10.33"/>
				<path class="st47" d="M-17.38,62.93c9.22-1.89,18.23-1.15,27.03,2.24C15,70.58,20.64,75.65,26.58,80.4
					c12.23,3.51,25.46-5.24,37.6-6.86c5.6-0.74,13.19,0.54,18.55-1.73c5.66-5.47,11.99-10.01,18.99-13.59
					c8.79,1.62,16.78,5.09,23.98,10.42"/>
				<path class="st47" d="M-17.1,62.7c9.26-1.72,18.31-0.91,27.15,2.41c5.23,5.5,10.84,10.58,16.83,15.22
					c12.1,3.46,25.65-5.35,37.63-6.94c5.63-0.75,13.24,0.54,18.63-1.79c5.54-5.7,11.88-10.24,19.05-13.64
					c8.78,1.66,16.75,5.16,23.92,10.5"/>
				<path class="st47" d="M-16.82,62.47c9.31-1.55,18.39-0.68,27.26,2.59c5.11,5.6,10.69,10.67,16.73,15.21
					c11.43,3.77,26.26-5.5,37.65-7.01c5.66-0.75,13.29,0.55,18.71-1.86c5.4-5.93,11.77-10.48,19.1-13.67
					c8.76,1.69,16.72,5.22,23.86,10.59"/>
				<path class="st47" d="M-16.54,62.23c9.35-1.38,18.47-0.46,27.36,2.77c4.99,5.7,10.54,10.77,16.65,15.2
					c11.39,3.62,26.34-5.59,37.66-7.09c5.7-0.76,13.34,0.55,18.8-1.93c5.27-6.17,11.65-10.73,19.15-13.7
					c8.75,1.72,16.68,5.28,23.8,10.68"/>
				<path class="st47" d="M-16.24,61.98c9.39-1.22,18.55-0.24,27.47,2.94c4.88,5.8,10.4,10.86,16.57,15.18
					c11.34,3.47,26.43-5.67,37.67-7.16c5.74-0.76,13.4,0.56,18.89-2c5.13-6.41,11.53-10.98,19.2-13.71
					c8.73,1.76,16.64,5.35,23.73,10.77"/>
				<path class="st47" d="M-15.93,61.74c9.43-1.07,18.62-0.03,27.58,3.11c4.77,5.9,10.27,10.95,16.5,15.16
					c11.28,3.32,26.53-5.76,37.68-7.25c5.79-0.77,13.46,0.56,19.01-2.08c4.98-6.67,11.4-11.25,19.26-13.74
					c8.72,1.79,16.61,5.41,23.67,10.85"/>
				<path class="st47" d="M-15.61,61.5c9.47-0.93,18.7,0.17,27.69,3.29c4.66,6,10.14,11.04,16.43,15.13
					c11.2,3.17,26.62-5.85,37.68-7.33c5.85-0.78,13.53,0.55,19.13-2.17c4.84-6.94,11.28-11.53,19.32-13.76
					c8.7,1.82,16.57,5.46,23.61,10.92"/>
				<path class="st47" d="M-15.29,61.27c9.51-0.79,18.77,0.37,27.79,3.47c4.55,6.09,10.01,11.13,16.38,15.1
					c11.11,3.02,26.72-5.94,37.68-7.41c5.92-0.79,13.6,0.56,19.26-2.26c4.7-7.21,11.16-11.8,19.38-13.76
					c8.69,1.85,16.54,5.52,23.55,11"/>
				<path class="st47" d="M-14.97,61.05c9.54-0.65,18.84,0.57,27.89,3.66c4.45,6.19,9.9,11.22,16.33,15.07
					c11,2.88,26.83-6.03,37.67-7.49c6-0.81,13.67,0.56,19.39-2.35c4.6-7.42,11.08-12.01,19.44-13.76
					c8.67,1.88,16.5,5.57,23.48,11.08"/>
				<path class="st47" d="M-14.64,60.83c9.58-0.52,18.91,0.76,27.99,3.84c4.36,6.29,9.78,11.3,16.28,15.04
					c10.88,2.73,26.93-6.12,37.66-7.56c6.08-0.82,13.75,0.57,19.53-2.44c4.5-7.63,11-12.22,19.5-13.76
					c8.66,1.91,16.47,5.63,23.42,11.16"/>
				<path class="st47" d="M-14.3,60.61c9.62-0.4,18.98,0.95,28.08,4.03c4.27,6.38,9.68,11.39,16.25,15.01
					c10.74,2.59,27.03-6.2,37.64-7.63c6.17-0.83,13.82,0.58,19.68-2.54c4.4-7.83,10.92-12.41,19.57-13.74
					c8.64,1.94,16.43,5.69,23.36,11.24"/>
				<path class="st47" d="M-13.95,60.4c9.65-0.28,19.04,1.13,28.17,4.23c4.18,6.48,9.58,11.47,16.21,14.98
					c10.58,2.45,27.12-6.29,37.61-7.7c6.28-0.84,13.9,0.59,19.84-2.63c4.31-8.03,10.86-12.6,19.63-13.71
					c8.63,1.98,16.39,5.75,23.29,11.32"/>
				<path class="st47" d="M-13.61,60.2c9.68-0.17,19.1,1.31,28.25,4.43c4.1,6.56,9.5,11.54,16.19,14.94
					c10.41,2.32,27.22-6.38,37.58-7.76c6.38-0.85,13.97,0.61,20-2.72c4.23-8.22,10.79-12.78,19.68-13.69
					c8.61,2.02,16.36,5.82,23.23,11.41"/>
				<path class="st47" d="M-13.25,60c9.71-0.06,19.16,1.48,28.33,4.63c4.03,6.65,9.42,11.61,16.17,14.9
					c10.21,2.18,27.31-6.47,37.54-7.82c6.5-0.86,14.05,0.63,20.17-2.82c4.15-8.39,10.72-12.95,19.72-13.68
					c8.6,2.07,16.34,5.91,23.19,11.52"/>
				<path class="st47" d="M-12.89,59.81c9.75,0.03,19.22,1.64,28.41,4.83c3.96,6.72,9.35,11.68,16.16,14.85
					c10,2.05,27.4-6.56,37.49-7.88c6.63-0.87,14.14,0.65,20.35-2.91c4.07-8.55,10.66-13.11,19.75-13.66
					c8.59,2.12,16.31,6,23.15,11.64"/>
				<path class="st47" d="M-12.52,59.63c9.78,0.12,19.27,1.8,28.48,5.04c3.9,6.8,9.29,11.73,16.16,14.8
					c9.77,1.92,27.49-6.65,37.44-7.94c6.76-0.88,14.22,0.68,20.53-3.01c4-8.71,10.6-13.25,19.79-13.63
					c8.58,2.18,16.29,6.09,23.11,11.75"/>
				<path class="st47" d="M-12.14,59.46c9.81,0.21,19.32,1.95,28.55,5.24c3.85,6.86,9.23,11.78,16.16,14.75
					c10.78,2.03,26.32-7.4,37.38-8c6.7-0.36,14.55,0.56,20.73-3.1c3.94-8.87,10.55-13.4,19.82-13.59
					c8.57,2.23,16.26,6.18,23.07,11.86"/>
				<path class="st47" d="M-11.76,59.3c9.84,0.28,19.37,2.1,28.6,5.45c3.8,6.92,9.19,11.82,16.18,14.69
					c10.55,1.91,26.37-7.48,37.31-8.05c6.85-0.36,14.64,0.6,20.92-3.2c3.88-9.01,10.5-13.53,19.86-13.54
					c8.56,2.28,16.23,6.28,23.03,11.98"/>
				<path class="st47" d="M-11.37,59.14c9.87,0.35,19.42,2.23,28.66,5.66c3.77,6.97,9.16,11.84,16.19,14.63
					c10.3,1.79,26.41-7.56,37.24-8.1c7.02-0.35,14.72,0.64,21.13-3.3c3.82-9.16,10.45-13.65,19.9-13.49
					c8.55,2.34,16.21,6.37,22.98,12.1"/>
				<path class="st47" d="M-10.97,58.99c9.9,0.41,19.47,2.36,28.7,5.88c3.74,7,9.14,11.86,16.22,14.56
					c10.03,1.67,26.45-7.64,37.15-8.15c7.19-0.34,14.81,0.68,21.34-3.4c3.77-9.29,10.42-13.77,19.93-13.43
					c8.53,2.4,16.18,6.47,22.94,12.22"/>
				<path class="st47" d="M-10.57,58.85c9.93,0.46,19.51,2.49,28.75,6.09c3.72,7.03,9.14,11.86,16.26,14.49
					c9.74,1.55,26.47-7.72,37.06-8.2c7.37-0.33,14.9,0.73,21.56-3.5c3.73-9.42,10.38-13.87,19.97-13.35
					c8.52,2.45,16.15,6.57,22.89,12.34"/>
				<path class="st47" d="M-10.16,58.71c9.96,0.5,19.55,2.6,28.78,6.31c3.71,7.05,9.14,11.86,16.3,14.42
					c9.44,1.44,26.49-7.8,36.97-8.25c7.55-0.32,15,0.78,21.78-3.59c3.68-9.54,10.35-13.97,20-13.27
					c8.51,2.51,16.12,6.67,22.84,12.46"/>
				<path class="st47" d="M-9.74,58.59c10.03,0.52,19.66,2.72,28.9,6.61c3.68,7.03,9.1,11.78,16.26,14.24
					c9.12,1.35,26.49-7.88,36.86-8.29c7.74-0.3,15.09,0.84,22.01-3.7c3.65-9.66,10.33-14.05,20.03-13.19
					c8.49,2.57,16.09,6.77,22.8,12.59"/>
				<path class="st47" d="M-9.32,58.47C0.79,59,10.46,61.31,19.69,65.4c3.65,7,9.06,11.69,16.22,14.06
					c8.81,1.26,26.48-7.96,36.75-8.33c7.94-0.29,15.18,0.9,22.25-3.8c3.62-9.77,10.31-14.13,20.07-13.09
					c8.48,2.63,16.06,6.87,22.75,12.71"/>
				<path class="st47" d="M-8.89,58.36c10.2,0.54,19.91,2.95,29.13,7.24c3.62,6.98,9.02,11.6,16.19,13.87
					c8.51,1.18,26.44-8.04,36.62-8.37c8.14-0.27,15.28,0.97,22.49-3.9c3.59-9.87,10.29-14.2,20.1-12.98
					c8.46,2.69,16.03,6.97,22.7,12.83"/>
				<path class="st47" d="M-8.46,58.26c10.28,0.54,20.03,3.06,29.24,7.56c3.59,6.96,8.98,11.51,16.16,13.67
					c8.22,1.11,26.39-8.11,36.49-8.41c8.35-0.25,15.38,1.05,22.74-4c3.57-9.96,10.28-14.25,20.14-12.87
					c8.45,2.75,15.99,7.07,22.64,12.96"/>
				<path class="st47" d="M-8.02,58.17c10.37,0.53,20.15,3.16,29.35,7.88c3.56,6.93,8.94,11.42,16.14,13.46
					c7.94,1.04,26.32-8.18,36.36-8.45c8.56-0.22,15.47,1.12,22.99-4.11c3.56-10.05,10.28-14.3,20.17-12.74
					c8.43,2.81,15.96,7.17,22.59,13.08"/>
				<path class="st47" d="M-7.57,58.09c10.46,0.52,20.28,3.26,29.45,8.2c3.54,6.91,8.91,11.32,16.12,13.24
					c7.67,0.98,26.23-8.24,36.23-8.47c8.77-0.2,15.57,1.18,23.24-4.23c3.55-10.13,10.28-14.34,20.2-12.61
					c8.41,2.87,15.92,7.27,22.54,13.21"/>
				<path class="st47" d="M-7.11,58.01c10.55,0.51,20.41,3.35,29.56,8.52c3.51,6.89,8.88,11.23,16.11,13.02
					c7.42,0.92,26.13-8.3,36.09-8.48c8.82-0.17,15.88,1.4,23.49-4.35c3.54-10.2,10.29-14.36,20.23-12.47
					c8.39,2.93,15.89,7.38,22.48,13.33"/>
				<path class="st47" d="M-6.65,57.95C4,58.43,13.88,61.38,23,66.79c3.49,6.86,8.86,11.13,16.1,12.79
					c7.2,0.87,26.01-8.35,35.95-8.49c9.01-0.13,15.99,1.46,23.74-4.49c3.54-10.27,10.3-14.37,20.26-12.31
					c8.37,2.99,15.85,7.48,22.43,13.46"/>
				<path class="st47" d="M-6.19,57.89c10.75,0.46,20.66,3.52,29.74,9.17c3.47,6.84,8.84,11.03,16.1,12.55
					c7.01,0.82,25.87-8.39,35.81-8.49c9.21-0.09,16.11,1.52,23.99-4.63c3.55-10.33,10.31-14.38,20.3-12.15
					c8.35,3.05,15.81,7.58,22.37,13.58"/>
				<path class="st47" d="M-5.71,57.85c10.85,0.43,20.79,3.59,29.83,9.49c3.46,6.82,8.83,10.92,16.1,12.31
					c6.74,0.76,25.79-8.39,35.66-8.48c9.42-0.08,16.22,1.58,24.23-4.78c3.56-10.37,10.34-14.37,20.33-11.98
					c8.33,3.11,15.77,7.68,22.31,13.71"/>
				<path class="st47" d="M-5.24,57.81c10.95,0.4,20.92,3.67,29.91,9.8c3.44,6.79,8.82,10.81,16.12,12.06
					c6.58,0.72,25.63-8.4,35.52-8.45c9.63-0.05,16.33,1.63,24.48-4.94c3.58-10.41,10.36-14.34,20.36-11.8
					c8.31,3.18,15.73,7.79,22.25,13.83"/>
				<path class="st47" d="M-4.75,57.78C6.3,58.14,16.3,61.52,25.24,67.9c3.43,6.77,8.81,10.71,16.13,11.81
					c6.46,0.68,25.45-8.41,35.37-8.42c9.84-0.01,16.45,1.67,24.72-5.11c3.6-10.44,10.39-14.31,20.39-11.6
					c8.29,3.24,15.69,7.89,22.19,13.96"/>
				<path class="st47" d="M-4.26,57.76c11.16,0.32,21.18,3.8,30.06,10.43c3.43,6.75,8.81,10.59,16.16,11.54
					c6.39,0.64,25.24-8.42,35.21-8.38c10.06,0.03,16.56,1.7,24.97-5.28c3.63-10.46,10.43-14.27,20.42-11.4
					c8.27,3.3,15.64,7.99,22.12,14.08"/>
				<path class="st47" d="M-3.77,57.75c11.27,0.28,21.31,3.86,30.13,10.74c3.42,6.72,8.82,10.48,16.19,11.27
					c7.68-5.19,15.97-7.92,24.86-8.18c3.41-0.79,6.8-0.84,10.19-0.16c10.27,0.08,16.68,1.72,25.21-5.47
					c3.66-10.48,10.47-14.21,20.45-11.19c8.24,3.36,15.6,8.09,22.06,14.2"/>
				<path class="st47" d="M-3.27,57.75c11.37,0.23,21.44,3.91,30.19,11.04c3.42,6.7,8.83,10.36,16.23,11
					c7.67-5.38,15.97-8.12,24.91-8.21c3.34-0.69,6.67-0.71,9.99-0.07c10.5,0.13,16.79,1.73,25.45-5.67
					c3.7-10.48,10.52-14.13,20.47-10.96c8.22,3.42,15.55,8.19,21.99,14.33"/>
				<path class="st47" d="M-2.76,57.76c11.48,0.18,21.56,3.96,30.24,11.34c3.43,6.67,8.85,10.25,16.28,10.72
					c7.65-5.56,15.97-8.31,24.94-8.23c3.28-0.59,6.54-0.58,9.79,0.02c10.73,0.19,16.9,1.73,25.69-5.87
					c3.74-10.47,10.58-14.05,20.5-10.73c8.19,3.48,15.5,8.3,21.92,14.45"/>
				<path class="st47" d="M-2.24,57.78c11.59,0.13,21.69,4.01,30.29,11.64c3.44,6.65,8.88,10.13,16.33,10.43
					c7.64-5.74,15.97-8.49,24.97-8.24c3.22-0.49,6.42-0.45,9.6,0.11c10.96,0.25,17.01,1.71,25.92-6.09
					c3.79-10.46,10.63-13.95,20.53-10.49c8.17,3.54,15.45,8.4,21.85,14.57"/>
				<path class="st47" d="M-1.73,57.81c11.7,0.07,21.81,4.05,30.33,11.92c3.45,6.62,8.91,10,16.4,10.14
					c7.63-5.91,15.96-8.66,24.98-8.24c3.16-0.4,6.3-0.33,9.42,0.2c11.2,0.31,17.12,1.69,26.16-6.31
					c3.85-10.43,10.7-13.84,20.56-10.23c8.14,3.6,15.4,8.49,21.78,14.69"/>
				<path class="st47" d="M-1.2,57.85c11.81,0.02,21.93,4.08,30.36,12.2c3.47,6.6,8.96,9.88,16.47,9.84
					c7.62-6.07,15.95-8.81,24.99-8.23c3.1-0.31,6.18-0.21,9.24,0.29c11.45,0.39,17.23,1.64,26.39-6.55
					c3.91-10.39,10.77-13.71,20.59-9.96c8.11,3.66,15.35,8.59,21.7,14.81"/>
				<path class="st47" d="M-0.67,57.9c11.91-0.05,22.04,4.11,30.39,12.48c3.49,6.57,9,9.75,16.55,9.54
					c7.61-6.22,15.94-8.96,24.98-8.21c3.04-0.22,6.07-0.1,9.07,0.37c11.7,0.46,17.33,1.59,26.62-6.79
					c3.97-10.34,10.84-13.57,20.61-9.69c8.08,3.72,15.29,8.69,21.63,14.92"/>
				<path class="st47" d="M-0.14,57.96c12.02-0.11,22.15,4.14,30.4,12.74c3.51,6.54,9.06,9.62,16.64,9.23
					c7.61-6.36,15.93-9.09,24.97-8.18c2.99-0.14,5.96,0.01,8.91,0.46c11.97,0.55,17.43,1.52,26.85-7.05
					c4.05-10.28,10.92-13.42,20.64-9.4c8.05,3.77,15.24,8.79,21.55,15.04"/>
				<path class="st47" d="M0.4,58.03c12.12-0.18,22.26,4.15,30.41,13c3.55,6.52,9.13,9.49,16.74,8.92c7.6-6.5,15.91-9.21,24.94-8.14
					c2.93-0.06,5.85,0.12,8.75,0.54c12.23,0.64,17.53,1.43,27.07-7.32c4.12-10.21,11.01-13.25,20.66-9.1
					c8.02,3.83,15.18,8.88,21.47,15.15"/>
				<path class="st47" d="M0.95,58.12c12.23-0.25,22.36,4.16,30.41,13.25c3.58,6.49,9.2,9.36,16.85,8.6
					c7.59-6.63,15.9-9.32,24.91-8.08c2.88,0.02,5.75,0.23,8.6,0.63c12.51,0.74,17.63,1.33,27.3-7.6
					c4.21-10.13,11.1-13.06,20.69-8.79c7.99,3.89,15.12,8.98,21.39,15.26"/>
				<path class="st47" d="M1.5,58.21c12.32-0.33,22.46,4.17,30.41,13.48c3.63,6.47,9.28,9.23,16.96,8.28
					c7.59-6.74,15.88-9.41,24.86-8.02c2.83,0.09,5.65,0.33,8.45,0.71c12.8,0.84,17.72,1.21,27.52-7.88
					c4.3-10.04,11.2-12.86,20.71-8.46c7.96,3.95,15.06,9.07,21.3,15.37"/>
				<path class="st47" d="M2.05,58.31c12.42-0.4,22.55,4.17,30.39,13.71c3.68,6.44,9.37,9.09,17.09,7.96
					c7.58-6.85,15.85-9.5,24.81-7.94c2.78,0.16,5.55,0.43,8.32,0.79c13.09,0.96,17.8,1.07,27.74-8.18
					c4.39-9.93,11.3-12.64,20.74-8.13c7.92,4,15,9.16,21.22,15.48"/>
				<path class="st47" d="M2.61,58.42c12.52-0.48,22.64,4.16,30.37,13.92c3.73,6.41,9.47,8.96,17.23,7.63
					c7.58-6.95,15.83-9.56,24.74-7.85c2.74,0.23,5.46,0.52,8.18,0.88c13.39,1.08,17.88,0.91,27.95-8.5
					c4.49-9.81,11.41-12.4,20.76-7.78c7.89,4.06,14.93,9.25,21.13,15.59"/>
				<path class="st47" d="M3.17,58.55c12.61-0.57,22.72,4.14,30.33,14.13c3.79,6.39,9.59,8.82,17.38,7.29
					c7.58-7.03,15.8-9.61,24.66-7.75c2.69,0.29,5.38,0.61,8.06,0.96c13.71,1.21,17.96,0.73,28.16-8.82
					c4.6-9.68,11.52-12.15,20.79-7.42c7.85,4.11,14.87,9.34,21.04,15.69"/>
				<path class="st47" d="M3.73,58.67c12.7-0.65,22.8,4.13,30.3,14.33c3.86,6.36,9.71,8.68,17.54,6.95
					c7.57-7.11,15.76-9.65,24.57-7.64c2.65,0.35,5.29,0.7,7.94,1.04c14.03,1.34,18.03,0.52,28.37-9.15
					c4.71-9.53,11.64-11.88,20.81-7.05c7.82,4.16,14.8,9.43,20.94,15.79"/>
				<path class="st47" d="M4.3,58.79c12.78-0.72,22.87,4.12,30.26,14.53c3.93,6.34,9.84,8.54,17.71,6.61
					c19.96-1.71,16.26-8.05,32.3-6.39c14.37,1.49,18.09,0.29,28.58-9.5c16.41-15.31,26.99-4.05,41.68,9.22"/>
				<path class="st47" d="M4.86,58.91c12.86-0.78,22.93,4.13,30.21,14.73c4.01,6.31,9.98,8.4,17.89,6.27
					c20.86-2.04,15.78-7.99,32.08-6.18c14.71,1.64,18.14,0.04,28.78-9.86c16.32-15.17,27.27-3.35,41.61,9.71"/>
				<path class="st47" d="M5.42,59.03c12.94-0.84,22.99,4.14,30.15,14.93c4.1,6.29,10.13,8.26,18.08,5.92
					c21.66-2.38,15.36-7.92,31.85-5.95c15.07,1.8,18.18-0.24,28.98-10.23c16.24-15.01,27.55-2.63,41.53,10.22"/>
				<path class="st47" d="M5.99,59.14C19,58.26,29.03,63.3,36.08,74.27c4.2,6.26,10.29,8.12,18.29,5.57
					C76.71,77.12,69.36,72,86,74.12c15.44,1.97,18.21-0.55,29.18-10.61c16.16-14.83,27.82-1.9,41.45,10.73"/>
				<path class="st47" d="M6.56,59.26c13.07-0.93,23.08,4.18,30.01,15.31c4.3,6.24,10.47,7.98,18.51,5.21
					c22.92-3.04,14.66-7.73,31.39-5.46c15.82,2.15,18.24-0.89,29.37-11c16.09-14.61,28.09-1.16,41.36,11.25"/>
				<path class="st47" d="M7.13,59.37c13.13-0.96,23.11,4.21,29.93,15.5c4.41,6.22,10.65,7.84,18.74,4.86
					c23.39-3.36,14.39-7.61,31.15-5.2c16.22,2.34,18.25-1.26,29.56-11.41c16.02-14.38,28.36-0.41,41.28,11.78"/>
				<path class="st47" d="M7.7,59.48c13.18-0.99,23.13,4.24,29.84,15.68c4.52,6.2,10.85,7.7,18.99,4.5
					c23.74-3.66,14.15-7.47,30.91-4.92c16.63,2.53,18.25-1.66,29.74-11.83c15.96-14.12,28.62,0.36,41.19,12.32"/>
				<path class="st47" d="M8.27,59.59c13.23-1,23.15,4.29,29.74,15.86c4.65,6.18,11.06,7.56,19.24,4.14
					c24-3.95,13.95-7.32,30.66-4.63c17.03,2.74,18.24-2.08,29.91-12.24c15.9-13.85,28.86,1.1,41.1,12.85"/>
				<path class="st47" d="M8.84,59.69c13.27-1.01,23.15,4.33,29.64,16.04c4.78,6.17,11.28,7.43,19.52,3.78
					c24.17-4.21,13.78-7.14,30.4-4.33c17.32,2.93,18.26-2.43,30.03-12.55c15.9-13.67,29.05,1.63,41.07,13.27"/>
				<path class="st47" d="M9.41,59.8c13.3-1.01,23.14,4.39,29.52,16.2c4.91,6.16,11.52,7.29,19.8,3.41
					c24.25-4.45,13.64-6.94,30.14-4.02c17.6,3.12,18.28-2.79,30.14-12.85c15.9-13.49,29.22,2.16,41.03,13.69"/>
				<path class="st47" d="M9.98,59.9c13.33-1.01,23.12,4.45,29.39,16.36c5.06,6.15,11.76,7.16,20.1,3.05
					c24.25-4.66,13.53-6.72,29.87-3.69c17.87,3.31,18.3-3.16,30.25-13.16c15.9-13.29,29.38,2.68,40.98,14.1"/>
				<path class="st47" d="M10.55,60c13.34-0.99,23.09,4.51,29.26,16.51c5.21,6.14,12.02,7.04,20.42,2.68
					c24.18-4.85,13.43-6.48,29.6-3.36c18.13,3.5,18.33-3.55,30.36-13.46c15.9-13.1,29.53,3.2,40.92,14.51"/>
				<path class="st47" d="M11.12,60.1c13.35-0.97,23.05,4.58,29.11,16.66c5.37,6.14,12.29,6.91,20.74,2.31
					c7.46-6.82,14.9-8.52,22.32-5.09c2.26,0.93,4.6,1.62,7,2.08c6.59,2.72,13.16,2.45,19.69-0.8c3.6-4.32,7.19-8.64,10.79-12.97
					c15.89-12.9,29.67,3.7,40.87,14.92"/>
				<path class="st47" d="M11.69,60.19c13.35-0.94,23,4.66,28.95,16.79c5.54,6.15,12.57,6.8,21.09,1.94
					c7.44-6.69,14.79-8.29,22.06-4.81c2.25,0.96,4.58,1.68,6.97,2.17c6.67,2.76,13.29,2.44,19.85-0.96
					c3.58-4.37,7.15-8.74,10.73-13.11c17.11-11.01,28.68,3.06,40.8,15.32"/>
				<path class="st47" d="M12.26,60.28c13.34-0.9,22.94,4.74,28.78,16.92c5.71,6.16,12.86,6.69,21.45,1.58
					c26.5-5.84,12.71-1.58,28.74-2.26c6.75,2.79,13.42,2.42,20.01-1.13c3.56-4.41,7.12-8.83,10.67-13.24
					c17.06-10.88,28.84,3.59,40.73,15.71"/>
				<path class="st47" d="M12.83,60.37c13.32-0.86,22.86,4.82,28.6,17.03c5.89,6.18,13.16,6.59,21.83,1.21
					c26.71-6.02,12.43-1.18,28.44-1.87c6.83,2.83,13.55,2.39,20.17-1.31c3.54-4.45,7.08-8.91,10.62-13.36
					c16.45-10.41,29.73,3.56,40.65,16.1"/>
				<path class="st47" d="M13.4,60.46c13.29-0.8,22.77,4.91,28.41,17.14c6.07,6.21,13.48,6.49,22.22,0.84
					c26.85-6.16,12.18-0.77,28.13-1.47c6.91,2.86,13.69,2.36,20.32-1.49c3.52-4.49,7.04-8.98,10.56-13.48
					c16.41-10.29,29.84,4.09,40.57,16.48"/>
				<path class="st47" d="M13.97,60.55c13.26-0.74,22.66,5,28.21,17.23c6.26,6.25,13.8,6.41,22.63,0.47
					C91.71,72,76.74,77.89,92.63,77.2c7,2.89,13.82,2.33,20.48-1.68c3.5-4.53,7-9.05,10.51-13.58
					c16.36-10.17,29.95,4.62,40.48,16.86"/>
				<path class="st47" d="M14.54,60.63c13.21-0.68,22.54,5.09,28,17.31c6.46,6.3,14.14,6.34,23.06,0.1
					c26.85-6.27,11.7,0.07,27.5-0.61c7.08,2.91,13.96,2.29,20.63-1.89c3.48-4.56,6.97-9.12,10.45-13.67
					c16.31-10.05,30.05,5.13,40.39,17.23"/>
				<path class="st47" d="M15.1,60.71c13.15-0.6,22.4,5.19,27.77,17.37c6.66,6.37,14.49,6.28,23.5-0.26
					c26.75-6.25,11.47,0.5,27.17-0.17c7.17,2.94,14.1,2.24,20.77-2.1c3.46-4.59,6.93-9.17,10.39-13.76
					c16.26-9.93,30.13,5.64,40.29,17.59"/>
				<path class="st47" d="M15.67,60.79c13.08-0.52,22.25,5.29,27.54,17.43c6.86,6.44,14.84,6.24,23.95-0.6
					c26.61-6.19,11.24,0.91,26.85,0.26c7.26,2.96,14.23,2.19,20.92-2.32c3.45-4.61,6.89-9.22,10.34-13.83
					c16.21-9.8,30.21,6.13,40.18,17.95"/>
				<path class="st47" d="M16.23,60.86c12.99-0.43,22.09,5.4,27.29,17.47c7.06,6.52,15.19,6.21,24.4-0.91
					c26.45-6.08,11.01,1.32,26.53,0.69c7.35,2.98,14.37,2.13,21.06-2.54c3.43-4.63,6.85-9.26,10.28-13.9
					c16.15-9.68,30.28,6.62,40.06,18.3"/>
				<path class="st47" d="M16.79,60.94c12.9-0.33,21.91,5.5,27.02,17.49c7.26,6.61,15.54,6.21,24.86-1.2
					c26.27-5.94,10.78,1.71,26.22,1.11c7.44,2.99,14.51,2.06,21.2-2.78c3.41-4.65,6.82-9.3,10.23-13.95
					c16.09-9.55,30.33,7.1,39.94,18.65"/>
				<path class="st47" d="M17.34,61c12.79-0.23,21.71,5.61,26.75,17.49c7.46,6.71,15.9,6.22,25.33-1.46
					c26.06-5.77,10.55,2.1,25.91,1.51c7.54,3,14.65,1.99,21.34-3.03c3.39-4.66,6.78-9.33,10.17-13.99
					c16.03-9.42,30.38,7.57,39.82,18.99"/>
				<path class="st47" d="M17.9,61.07c12.68-0.11,21.5,5.72,26.46,17.49c7.65,6.82,16.25,6.25,25.79-1.7
					c25.81-5.56,10.33,2.47,25.61,1.91c7.64,3.01,14.79,1.92,21.47-3.28c3.37-4.67,6.74-9.35,10.11-14.02
					c15.96-9.29,30.41,8.03,39.68,19.32"/>
				<path class="st47" d="M18.45,61.13c12.55,0,21.28,5.83,26.18,17.49c7.86,6.91,16.61,6.26,26.25-1.94
					c25.51-5.32,10.11,2.84,25.31,2.3c7.73,3.02,14.93,1.83,21.6-3.55c3.35-4.68,6.71-9.36,10.06-14.05
					c15.89-9.16,30.44,8.49,39.54,19.65"/>
				<path class="st47" d="M19,61.19c12.48,0.66,21.23,6.6,26.23,17.84c7.1,5.39,14.21,5.26,21.35-0.39
					c13.81-5.31,18.22-0.77,30.75,0.48c5.28,2.35,10.76,2.19,16.44-0.46c5.49-9.1,12.94-15.95,22.33-20.54
					c11.86-1.43,25.5,15.51,31.65,23.16"/>
				<path class="st47" d="M19.55,61.25c12.35,0.84,21,6.81,25.97,17.89c7.24,5.33,14.46,5.17,21.64-0.49
					c13.96-5.39,17.98-0.62,30.58,0.66c5.33,2.37,10.85,2.17,16.56-0.62c5.32-9.3,12.75-16.14,22.31-20.51
					c11.83-1.28,25.35,15.65,31.46,23.33"/>
				<path class="st47" d="M20.09,61.31c12.21,1.03,20.78,7.02,25.71,17.95c7.38,5.26,14.69,5.07,21.94-0.59
					c14.11-5.47,17.74-0.47,30.41,0.84c5.39,2.4,10.95,2.14,16.69-0.78c5.15-9.5,12.57-16.32,22.28-20.46
					c11.81-1.13,25.19,15.79,31.28,23.49"/>
				<path class="st47" d="M20.63,61.36c12.07,1.22,20.55,7.23,25.45,18.01c7.52,5.18,14.93,4.95,22.24-0.7
					c14.26-5.53,17.49-0.32,30.23,1.01c5.44,2.43,11.05,2.11,16.81-0.94c4.98-9.69,12.39-16.5,22.25-20.41
					c11.78-0.98,25.03,15.92,31.09,23.64"/>
				<path class="st47" d="M21.17,61.41c11.93,1.41,20.32,7.44,25.19,18.07c7.66,5.09,15.17,4.82,22.53-0.81
					c14.4-5.59,17.25-0.18,30.06,1.19c5.5,2.45,11.14,2.08,16.92-1.12c4.82-9.88,12.22-16.66,22.22-20.35
					c11.74-0.82,24.86,16.05,30.89,23.78"/>
				<path class="st47" d="M21.7,61.45c11.78,1.6,20.09,7.65,24.94,18.13c7.79,4.99,15.4,4.68,22.81-0.92
					c14.54-5.64,17.01-0.03,29.88,1.36c5.56,2.47,11.24,2.04,17.04-1.3c4.66-10.07,12.05-16.83,22.18-20.28
					c11.71-0.67,24.68,16.17,30.69,23.92"/>
				<path class="st47" d="M22.22,61.49c11.63,1.79,19.86,7.86,24.68,18.2c7.92,4.87,15.62,4.52,23.1-1.04
					c14.67-5.68,16.78,0.12,29.7,1.54c5.62,2.49,11.33,2,17.15-1.49c4.5-10.25,11.88-16.98,22.15-20.21
					c11.67-0.52,24.51,16.28,30.48,24.05"/>
				<path class="st47" d="M22.75,61.53c20,9.1,24.95,25.95,47.81,17.12c14.8-5.72,16.54,0.27,29.52,1.71
					c5.68,2.51,11.43,1.95,17.26-1.69c4.35-10.42,11.72-17.13,22.11-20.12c11.63-0.37,24.32,16.39,30.26,24.17"/>
				<path class="st47" d="M23.27,61.57c19.91,9.45,24.85,25.91,47.84,17.06c14.91-5.74,16.31,0.42,29.34,1.88
					c5.74,2.53,11.53,1.9,17.37-1.9c4.21-10.6,11.57-17.27,22.07-20.03c11.58-0.22,24.14,16.49,30.04,24.28"/>
				<path class="st47" d="M23.78,61.6c19.82,9.8,24.75,25.86,47.86,17.01c15.02-5.75,16.08,0.57,29.16,2.05
					c5.8,2.54,11.63,1.84,17.47-2.11c4.07-10.76,11.41-17.4,22.02-19.93c11.54-0.07,23.95,16.58,29.81,24.39"/>
				<path class="st47" d="M24.29,61.63c19.74,10.16,24.63,25.81,47.88,16.95c15.12-5.76,15.85,0.73,28.98,2.22
					c5.87,2.55,11.73,1.78,17.57-2.33c3.94-10.93,11.26-17.53,21.98-19.81c11.49,0.08,23.75,16.67,29.58,24.49"/>
				<path class="st47" d="M24.79,61.65c19.66,10.52,24.51,25.74,47.9,16.9c15.21-5.75,15.63,0.88,28.8,2.39
					c5.94,2.56,11.83,1.71,17.67-2.56c3.81-11.08,11.12-17.65,21.93-19.69c11.43,0.22,23.55,16.75,29.34,24.58"/>
				<path class="st47" d="M25.29,61.67c19.6,10.89,24.37,25.66,47.92,16.83c15.28-5.73,15.41,1.04,28.62,2.55
					c6,2.57,11.93,1.64,17.76-2.8c3.68-11.23,10.98-17.76,21.88-19.56c11.37,0.37,23.35,16.82,29.1,24.66"/>
				<path class="st47" d="M25.78,61.69c19.54,11.27,24.23,25.56,47.94,16.77c15.35-5.69,15.2,1.2,28.43,2.72
					c6.07,2.57,12.03,1.56,17.85-3.04c3.57-11.38,10.84-17.86,21.83-19.43c11.31,0.51,23.15,16.88,28.84,24.73"/>
				<path class="st47" d="M26.27,61.71c19.49,11.66,24.07,25.46,47.96,16.7c15.39-5.64,14.99,1.37,28.24,2.89
					c22.46,2.57,20.46-23.7,39.71-22.58c11.25,0.66,22.94,16.94,28.59,24.79"/>
				<path class="st47" d="M26.75,61.72c19.46,12.05,23.9,25.33,47.97,16.62c15.42-5.58,14.78,1.53,28.06,3.05
					c22.45,2.57,20.45-24.06,39.74-22.68c11.18,0.8,22.72,17,28.32,24.85"/>
				<path class="st47" d="M27.23,61.73c19.43,12.46,23.72,25.2,47.98,16.55c15.44-5.51,14.58,1.7,27.87,3.22
					c22.43,2.55,20.43-24.42,39.76-22.79c11.1,0.94,22.51,17.04,28.05,24.9"/>
			</g>
		</g>
	</g>
</g>
<g id="圖層_2">
</g>
</svg>
